%TF.GenerationSoftware,KiCad,Pcbnew,(5.1.6)-1*%
%TF.CreationDate,2020-10-12T18:58:51-06:00*%
%TF.ProjectId,SO6502,534f3635-3032-42e6-9b69-6361645f7063,1*%
%TF.SameCoordinates,Original*%
%TF.FileFunction,Copper,L4,Bot*%
%TF.FilePolarity,Positive*%
%FSLAX46Y46*%
G04 Gerber Fmt 4.6, Leading zero omitted, Abs format (unit mm)*
G04 Created by KiCad (PCBNEW (5.1.6)-1) date 2020-10-12 18:58:51*
%MOMM*%
%LPD*%
G01*
G04 APERTURE LIST*
%TA.AperFunction,ComponentPad*%
%ADD10C,4.000000*%
%TD*%
%TA.AperFunction,ComponentPad*%
%ADD11C,1.600000*%
%TD*%
%TA.AperFunction,ComponentPad*%
%ADD12R,1.600000X1.600000*%
%TD*%
%TA.AperFunction,ComponentPad*%
%ADD13O,1.600000X1.600000*%
%TD*%
%TA.AperFunction,ComponentPad*%
%ADD14C,1.422400*%
%TD*%
%TA.AperFunction,ComponentPad*%
%ADD15R,1.422400X1.422400*%
%TD*%
%TA.AperFunction,ComponentPad*%
%ADD16R,1.500000X1.500000*%
%TD*%
%TA.AperFunction,ComponentPad*%
%ADD17C,1.500000*%
%TD*%
%TA.AperFunction,ComponentPad*%
%ADD18C,2.000000*%
%TD*%
%TA.AperFunction,ComponentPad*%
%ADD19O,1.700000X1.700000*%
%TD*%
%TA.AperFunction,ComponentPad*%
%ADD20R,1.700000X1.700000*%
%TD*%
%TA.AperFunction,ComponentPad*%
%ADD21O,2.250000X4.500000*%
%TD*%
%TA.AperFunction,ComponentPad*%
%ADD22O,4.500000X2.250000*%
%TD*%
%TA.AperFunction,ComponentPad*%
%ADD23O,5.000000X2.500000*%
%TD*%
%TA.AperFunction,ComponentPad*%
%ADD24C,1.800000*%
%TD*%
%TA.AperFunction,ComponentPad*%
%ADD25R,1.800000X1.800000*%
%TD*%
%TA.AperFunction,Conductor*%
%ADD26C,0.127000*%
%TD*%
G04 APERTURE END LIST*
D10*
%TO.P,J3,0*%
%TO.N,N/C*%
X115691000Y-36807000D03*
X140691000Y-36807000D03*
D11*
%TO.P,J3,9*%
%TO.N,Net-(J3-Pad9)*%
X124036000Y-35387000D03*
%TO.P,J3,8*%
%TO.N,CTSb*%
X126806000Y-35387000D03*
%TO.P,J3,7*%
%TO.N,RTSb*%
X129576000Y-35387000D03*
%TO.P,J3,6*%
%TO.N,Net-(J3-Pad6)*%
X132346000Y-35387000D03*
%TO.P,J3,5*%
%TO.N,GND*%
X122651000Y-38227000D03*
%TO.P,J3,4*%
%TO.N,Net-(J3-Pad4)*%
X125421000Y-38227000D03*
%TO.P,J3,3*%
%TO.N,TxDb*%
X128191000Y-38227000D03*
%TO.P,J3,2*%
%TO.N,RxDb*%
X130961000Y-38227000D03*
D12*
%TO.P,J3,1*%
%TO.N,Net-(J3-Pad1)*%
X133731000Y-38227000D03*
%TD*%
D10*
%TO.P,J2,0*%
%TO.N,N/C*%
X80766000Y-36807000D03*
X105766000Y-36807000D03*
D11*
%TO.P,J2,9*%
%TO.N,Net-(J2-Pad9)*%
X89111000Y-35387000D03*
%TO.P,J2,8*%
%TO.N,CTSa*%
X91881000Y-35387000D03*
%TO.P,J2,7*%
%TO.N,RTSa*%
X94651000Y-35387000D03*
%TO.P,J2,6*%
%TO.N,Net-(J2-Pad6)*%
X97421000Y-35387000D03*
%TO.P,J2,5*%
%TO.N,GND*%
X87726000Y-38227000D03*
%TO.P,J2,4*%
%TO.N,Net-(J2-Pad4)*%
X90496000Y-38227000D03*
%TO.P,J2,3*%
%TO.N,TxDa*%
X93266000Y-38227000D03*
%TO.P,J2,2*%
%TO.N,RxDa*%
X96036000Y-38227000D03*
D12*
%TO.P,J2,1*%
%TO.N,Net-(J2-Pad1)*%
X98806000Y-38227000D03*
%TD*%
D11*
%TO.P,C16,2*%
%TO.N,GND*%
X122722000Y-57023000D03*
%TO.P,C16,1*%
%TO.N,RESET*%
X125222000Y-57023000D03*
%TD*%
%TO.P,X2,4*%
%TO.N,GND*%
X110617000Y-60452000D03*
%TO.P,X2,5*%
%TO.N,X1*%
X102997000Y-60452000D03*
%TO.P,X2,8*%
%TO.N,Vcc*%
X102997000Y-68072000D03*
D12*
%TO.P,X2,1*%
%TO.N,Net-(X2-Pad1)*%
X110617000Y-68072000D03*
%TD*%
D11*
%TO.P,X1,4*%
%TO.N,GND*%
X66675000Y-57658000D03*
%TO.P,X1,5*%
%TO.N,PHI2*%
X59055000Y-57658000D03*
%TO.P,X1,8*%
%TO.N,Vcc*%
X59055000Y-65278000D03*
D12*
%TO.P,X1,1*%
%TO.N,Net-(X1-Pad1)*%
X66675000Y-65278000D03*
%TD*%
D13*
%TO.P,U3,24*%
%TO.N,RTSa*%
X112649000Y-45847000D03*
%TO.P,U3,12*%
%TO.N,Net-(C15-Pad2)*%
X140589000Y-53467000D03*
%TO.P,U3,23*%
%TO.N,CTSa*%
X115189000Y-45847000D03*
%TO.P,U3,11*%
%TO.N,Net-(C14-Pad2)*%
X138049000Y-53467000D03*
%TO.P,U3,22*%
%TO.N,DCTSa*%
X117729000Y-45847000D03*
%TO.P,U3,10*%
%TO.N,Net-(C15-Pad1)*%
X135509000Y-53467000D03*
%TO.P,U3,21*%
%TO.N,DRTSb*%
X120269000Y-45847000D03*
%TO.P,U3,9*%
%TO.N,Vcc*%
X132969000Y-53467000D03*
%TO.P,U3,20*%
%TO.N,RTSb*%
X122809000Y-45847000D03*
%TO.P,U3,8*%
%TO.N,GND*%
X130429000Y-53467000D03*
%TO.P,U3,19*%
%TO.N,DRTSa*%
X125349000Y-45847000D03*
%TO.P,U3,7*%
%TO.N,RxDa*%
X127889000Y-53467000D03*
%TO.P,U3,18*%
%TO.N,DTxDb*%
X127889000Y-45847000D03*
%TO.P,U3,6*%
%TO.N,DRxDa*%
X125349000Y-53467000D03*
%TO.P,U3,17*%
%TO.N,DCTSb*%
X130429000Y-45847000D03*
%TO.P,U3,5*%
%TO.N,DTxDa*%
X122809000Y-53467000D03*
%TO.P,U3,16*%
%TO.N,CTSb*%
X132969000Y-45847000D03*
%TO.P,U3,4*%
%TO.N,DRxDb*%
X120269000Y-53467000D03*
%TO.P,U3,15*%
%TO.N,Net-(C12-Pad1)*%
X135509000Y-45847000D03*
%TO.P,U3,3*%
%TO.N,RxDb*%
X117729000Y-53467000D03*
%TO.P,U3,14*%
%TO.N,Net-(C13-Pad1)*%
X138049000Y-45847000D03*
%TO.P,U3,2*%
%TO.N,TxDa*%
X115189000Y-53467000D03*
%TO.P,U3,13*%
%TO.N,Net-(C13-Pad2)*%
X140589000Y-45847000D03*
D12*
%TO.P,U3,1*%
%TO.N,TxDb*%
X112649000Y-53467000D03*
%TD*%
D14*
%TO.P,U5,39*%
%TO.N,CS2892*%
X124206000Y-62103000D03*
%TO.P,U5,37*%
%TO.N,Net-(U5-Pad37)*%
X126746000Y-62103000D03*
%TO.P,U5,35*%
%TO.N,DRxDa*%
X129286000Y-62103000D03*
%TO.P,U5,33*%
%TO.N,DTxDa*%
X131826000Y-62103000D03*
%TO.P,U5,31*%
%TO.N,OP2*%
X134366000Y-62103000D03*
%TO.P,U5,40*%
%TO.N,IP2*%
X121666000Y-64643000D03*
%TO.P,U5,38*%
%TO.N,RESET*%
X126746000Y-64643000D03*
%TO.P,U5,36*%
%TO.N,X1*%
X129286000Y-64643000D03*
%TO.P,U5,34*%
%TO.N,Net-(U5-Pad34)*%
X131826000Y-64643000D03*
%TO.P,U5,32*%
%TO.N,DRTSa*%
X134366000Y-64643000D03*
%TO.P,U5,30*%
%TO.N,OP4*%
X136906000Y-64643000D03*
%TO.P,U5,28*%
%TO.N,D0*%
X139446000Y-64643000D03*
%TO.P,U5,26*%
%TO.N,D4*%
X139446000Y-67183000D03*
%TO.P,U5,24*%
%TO.N,IRQ2B*%
X139446000Y-69723000D03*
%TO.P,U5,22*%
%TO.N,GND*%
X139446000Y-72263000D03*
%TO.P,U5,20*%
%TO.N,D5*%
X139446000Y-74803000D03*
%TO.P,U5,18*%
%TO.N,D1*%
X139446000Y-77343000D03*
%TO.P,U5,29*%
%TO.N,OP6*%
X136906000Y-62103000D03*
%TO.P,U5,27*%
%TO.N,D2*%
X136906000Y-67183000D03*
%TO.P,U5,25*%
%TO.N,D6*%
X136906000Y-69723000D03*
%TO.P,U5,23*%
%TO.N,Net-(U5-Pad23)*%
X136906000Y-72263000D03*
%TO.P,U5,21*%
%TO.N,D7*%
X136906000Y-74803000D03*
%TO.P,U5,19*%
%TO.N,D3*%
X136906000Y-77343000D03*
%TO.P,U5,17*%
%TO.N,OP7*%
X136906000Y-79883000D03*
%TO.P,U5,15*%
%TO.N,OP3*%
X134366000Y-79883000D03*
%TO.P,U5,13*%
%TO.N,DTxDb*%
X131826000Y-79883000D03*
%TO.P,U5,11*%
%TO.N,DRxDb*%
X129286000Y-79883000D03*
%TO.P,U5,9*%
%TO.N,WR*%
X126746000Y-79883000D03*
%TO.P,U5,7*%
%TO.N,A3*%
X124206000Y-79883000D03*
%TO.P,U5,16*%
%TO.N,OP5*%
X134366000Y-77343000D03*
%TO.P,U5,14*%
%TO.N,DRTSb*%
X131826000Y-77343000D03*
%TO.P,U5,12*%
%TO.N,Vcc*%
X129286000Y-77343000D03*
%TO.P,U5,10*%
%TO.N,RD*%
X126746000Y-77343000D03*
%TO.P,U5,8*%
%TO.N,DCTSa*%
X124206000Y-77343000D03*
%TO.P,U5,42*%
%TO.N,IP5*%
X121666000Y-67183000D03*
%TO.P,U5,44*%
%TO.N,Vcc*%
X121666000Y-69723000D03*
%TO.P,U5,6*%
%TO.N,A2*%
X121666000Y-77343000D03*
%TO.P,U5,4*%
%TO.N,A1*%
X121666000Y-74803000D03*
%TO.P,U5,2*%
%TO.N,A0*%
X121666000Y-72263000D03*
%TO.P,U5,41*%
%TO.N,IP6*%
X124206000Y-64643000D03*
%TO.P,U5,43*%
%TO.N,IP4*%
X124206000Y-67183000D03*
%TO.P,U5,5*%
%TO.N,DCTSb*%
X124206000Y-74803000D03*
%TO.P,U5,3*%
%TO.N,IP3*%
X124206000Y-72263000D03*
D15*
%TO.P,U5,1*%
%TO.N,Net-(U5-Pad1)*%
X124206000Y-69723000D03*
%TD*%
D13*
%TO.P,U8,40*%
%TO.N,CA1*%
X54991000Y-99949000D03*
%TO.P,U8,20*%
%TO.N,Vcc*%
X103251000Y-115189000D03*
%TO.P,U8,39*%
%TO.N,CA2*%
X57531000Y-99949000D03*
%TO.P,U8,19*%
%TO.N,CB2*%
X100711000Y-115189000D03*
%TO.P,U8,38*%
%TO.N,A0*%
X60071000Y-99949000D03*
%TO.P,U8,18*%
%TO.N,CB1*%
X98171000Y-115189000D03*
%TO.P,U8,37*%
%TO.N,A1*%
X62611000Y-99949000D03*
%TO.P,U8,17*%
%TO.N,PB7*%
X95631000Y-115189000D03*
%TO.P,U8,36*%
%TO.N,A2*%
X65151000Y-99949000D03*
%TO.P,U8,16*%
%TO.N,PB6*%
X93091000Y-115189000D03*
%TO.P,U8,35*%
%TO.N,A3*%
X67691000Y-99949000D03*
%TO.P,U8,15*%
%TO.N,PB5*%
X90551000Y-115189000D03*
%TO.P,U8,34*%
%TO.N,RESB*%
X70231000Y-99949000D03*
%TO.P,U8,14*%
%TO.N,PB4*%
X88011000Y-115189000D03*
%TO.P,U8,33*%
%TO.N,D0*%
X72771000Y-99949000D03*
%TO.P,U8,13*%
%TO.N,PB3*%
X85471000Y-115189000D03*
%TO.P,U8,32*%
%TO.N,D1*%
X75311000Y-99949000D03*
%TO.P,U8,12*%
%TO.N,PB2*%
X82931000Y-115189000D03*
%TO.P,U8,31*%
%TO.N,D2*%
X77851000Y-99949000D03*
%TO.P,U8,11*%
%TO.N,PB1*%
X80391000Y-115189000D03*
%TO.P,U8,30*%
%TO.N,D3*%
X80391000Y-99949000D03*
%TO.P,U8,10*%
%TO.N,PB0*%
X77851000Y-115189000D03*
%TO.P,U8,29*%
%TO.N,D4*%
X82931000Y-99949000D03*
%TO.P,U8,9*%
%TO.N,PA7*%
X75311000Y-115189000D03*
%TO.P,U8,28*%
%TO.N,D5*%
X85471000Y-99949000D03*
%TO.P,U8,8*%
%TO.N,PA6*%
X72771000Y-115189000D03*
%TO.P,U8,27*%
%TO.N,D6*%
X88011000Y-99949000D03*
%TO.P,U8,7*%
%TO.N,PA5*%
X70231000Y-115189000D03*
%TO.P,U8,26*%
%TO.N,D7*%
X90551000Y-99949000D03*
%TO.P,U8,6*%
%TO.N,PA4*%
X67691000Y-115189000D03*
%TO.P,U8,25*%
%TO.N,PHI2*%
X93091000Y-99949000D03*
%TO.P,U8,5*%
%TO.N,PA3*%
X65151000Y-115189000D03*
%TO.P,U8,24*%
%TO.N,Vcc*%
X95631000Y-99949000D03*
%TO.P,U8,4*%
%TO.N,PA2*%
X62611000Y-115189000D03*
%TO.P,U8,23*%
%TO.N,CS6522*%
X98171000Y-99949000D03*
%TO.P,U8,3*%
%TO.N,PA1*%
X60071000Y-115189000D03*
%TO.P,U8,22*%
%TO.N,RWB*%
X100711000Y-99949000D03*
%TO.P,U8,2*%
%TO.N,PA0*%
X57531000Y-115189000D03*
%TO.P,U8,21*%
%TO.N,IRQ1B*%
X103251000Y-99949000D03*
D12*
%TO.P,U8,1*%
%TO.N,GND*%
X54991000Y-115189000D03*
%TD*%
%TO.P,U7,1*%
%TO.N,A14*%
X108204000Y-92964000D03*
D13*
%TO.P,U7,15*%
%TO.N,D3*%
X141224000Y-85344000D03*
%TO.P,U7,2*%
%TO.N,A12*%
X110744000Y-92964000D03*
%TO.P,U7,16*%
%TO.N,D4*%
X138684000Y-85344000D03*
%TO.P,U7,3*%
%TO.N,A7*%
X113284000Y-92964000D03*
%TO.P,U7,17*%
%TO.N,D5*%
X136144000Y-85344000D03*
%TO.P,U7,4*%
%TO.N,A6*%
X115824000Y-92964000D03*
%TO.P,U7,18*%
%TO.N,D6*%
X133604000Y-85344000D03*
%TO.P,U7,5*%
%TO.N,A5*%
X118364000Y-92964000D03*
%TO.P,U7,19*%
%TO.N,D7*%
X131064000Y-85344000D03*
%TO.P,U7,6*%
%TO.N,A4*%
X120904000Y-92964000D03*
%TO.P,U7,20*%
%TO.N,CSRAM*%
X128524000Y-85344000D03*
%TO.P,U7,7*%
%TO.N,A3*%
X123444000Y-92964000D03*
%TO.P,U7,21*%
%TO.N,A10*%
X125984000Y-85344000D03*
%TO.P,U7,8*%
%TO.N,A2*%
X125984000Y-92964000D03*
%TO.P,U7,22*%
%TO.N,RD*%
X123444000Y-85344000D03*
%TO.P,U7,9*%
%TO.N,A1*%
X128524000Y-92964000D03*
%TO.P,U7,23*%
%TO.N,A11*%
X120904000Y-85344000D03*
%TO.P,U7,10*%
%TO.N,A0*%
X131064000Y-92964000D03*
%TO.P,U7,24*%
%TO.N,A9*%
X118364000Y-85344000D03*
%TO.P,U7,11*%
%TO.N,D0*%
X133604000Y-92964000D03*
%TO.P,U7,25*%
%TO.N,A8*%
X115824000Y-85344000D03*
%TO.P,U7,12*%
%TO.N,D1*%
X136144000Y-92964000D03*
%TO.P,U7,26*%
%TO.N,A13*%
X113284000Y-85344000D03*
%TO.P,U7,13*%
%TO.N,D2*%
X138684000Y-92964000D03*
%TO.P,U7,27*%
%TO.N,WR*%
X110744000Y-85344000D03*
%TO.P,U7,14*%
%TO.N,GND*%
X141224000Y-92964000D03*
%TO.P,U7,28*%
%TO.N,Vcc*%
X108204000Y-85344000D03*
%TD*%
%TO.P,U9,28*%
%TO.N,Vcc*%
X109982000Y-99949000D03*
%TO.P,U9,14*%
%TO.N,GND*%
X143002000Y-115189000D03*
%TO.P,U9,27*%
%TO.N,Vcc*%
X112522000Y-99949000D03*
%TO.P,U9,13*%
%TO.N,D2*%
X140462000Y-115189000D03*
%TO.P,U9,26*%
%TO.N,A13*%
X115062000Y-99949000D03*
%TO.P,U9,12*%
%TO.N,D1*%
X137922000Y-115189000D03*
%TO.P,U9,25*%
%TO.N,A8*%
X117602000Y-99949000D03*
%TO.P,U9,11*%
%TO.N,D0*%
X135382000Y-115189000D03*
%TO.P,U9,24*%
%TO.N,A9*%
X120142000Y-99949000D03*
%TO.P,U9,10*%
%TO.N,A0*%
X132842000Y-115189000D03*
%TO.P,U9,23*%
%TO.N,A11*%
X122682000Y-99949000D03*
%TO.P,U9,9*%
%TO.N,A1*%
X130302000Y-115189000D03*
%TO.P,U9,22*%
%TO.N,RD*%
X125222000Y-99949000D03*
%TO.P,U9,8*%
%TO.N,A2*%
X127762000Y-115189000D03*
%TO.P,U9,21*%
%TO.N,A10*%
X127762000Y-99949000D03*
%TO.P,U9,7*%
%TO.N,A3*%
X125222000Y-115189000D03*
%TO.P,U9,20*%
%TO.N,CSROM*%
X130302000Y-99949000D03*
%TO.P,U9,6*%
%TO.N,A4*%
X122682000Y-115189000D03*
%TO.P,U9,19*%
%TO.N,D7*%
X132842000Y-99949000D03*
%TO.P,U9,5*%
%TO.N,A5*%
X120142000Y-115189000D03*
%TO.P,U9,18*%
%TO.N,D6*%
X135382000Y-99949000D03*
%TO.P,U9,4*%
%TO.N,A6*%
X117602000Y-115189000D03*
%TO.P,U9,17*%
%TO.N,D5*%
X137922000Y-99949000D03*
%TO.P,U9,3*%
%TO.N,A7*%
X115062000Y-115189000D03*
%TO.P,U9,16*%
%TO.N,D4*%
X140462000Y-99949000D03*
%TO.P,U9,2*%
%TO.N,A12*%
X112522000Y-115189000D03*
%TO.P,U9,15*%
%TO.N,D3*%
X143002000Y-99949000D03*
D12*
%TO.P,U9,1*%
%TO.N,A14*%
X109982000Y-115189000D03*
%TD*%
D13*
%TO.P,U4,14*%
%TO.N,Vcc*%
X78867000Y-60706000D03*
%TO.P,U4,7*%
%TO.N,GND*%
X94107000Y-68326000D03*
%TO.P,U4,13*%
%TO.N,Net-(U4-Pad12)*%
X81407000Y-60706000D03*
%TO.P,U4,6*%
%TO.N,RESB*%
X91567000Y-68326000D03*
%TO.P,U4,12*%
%TO.N,Net-(U4-Pad12)*%
X83947000Y-60706000D03*
%TO.P,U4,5*%
%TO.N,RESET*%
X89027000Y-68326000D03*
%TO.P,U4,11*%
%TO.N,IRQB*%
X86487000Y-60706000D03*
%TO.P,U4,4*%
%TO.N,RESET*%
X86487000Y-68326000D03*
%TO.P,U4,10*%
%TO.N,IRQ2B*%
X89027000Y-60706000D03*
%TO.P,U4,3*%
%TO.N,RESET*%
X83947000Y-68326000D03*
%TO.P,U4,9*%
%TO.N,IRQ1B*%
X91567000Y-60706000D03*
%TO.P,U4,2*%
%TO.N,Net-(SW1-Pad1)*%
X81407000Y-68326000D03*
%TO.P,U4,8*%
%TO.N,Net-(U4-Pad12)*%
X94107000Y-60706000D03*
D12*
%TO.P,U4,1*%
%TO.N,Net-(SW1-Pad1)*%
X78867000Y-68326000D03*
%TD*%
D13*
%TO.P,U2,24*%
%TO.N,Vcc*%
X78994000Y-45720000D03*
%TO.P,U2,12*%
%TO.N,GND*%
X106934000Y-53340000D03*
%TO.P,U2,23*%
%TO.N,RDY*%
X81534000Y-45720000D03*
%TO.P,U2,11*%
%TO.N,A7*%
X104394000Y-53340000D03*
%TO.P,U2,22*%
%TO.N,WR*%
X84074000Y-45720000D03*
%TO.P,U2,10*%
%TO.N,A8*%
X101854000Y-53340000D03*
%TO.P,U2,21*%
%TO.N,RD*%
X86614000Y-45720000D03*
%TO.P,U2,9*%
%TO.N,A9*%
X99314000Y-53340000D03*
%TO.P,U2,20*%
%TO.N,Net-(U2-Pad20)*%
X89154000Y-45720000D03*
%TO.P,U2,8*%
%TO.N,A10*%
X96774000Y-53340000D03*
%TO.P,U2,19*%
%TO.N,CS6522*%
X91694000Y-45720000D03*
%TO.P,U2,7*%
%TO.N,A11*%
X94234000Y-53340000D03*
%TO.P,U2,18*%
%TO.N,CSROM*%
X94234000Y-45720000D03*
%TO.P,U2,6*%
%TO.N,A12*%
X91694000Y-53340000D03*
%TO.P,U2,17*%
%TO.N,CSRAM*%
X96774000Y-45720000D03*
%TO.P,U2,5*%
%TO.N,A13*%
X89154000Y-53340000D03*
%TO.P,U2,16*%
%TO.N,CS2892*%
X99314000Y-45720000D03*
%TO.P,U2,4*%
%TO.N,A14*%
X86614000Y-53340000D03*
%TO.P,U2,15*%
%TO.N,A4*%
X101854000Y-45720000D03*
%TO.P,U2,3*%
%TO.N,A15*%
X84074000Y-53340000D03*
%TO.P,U2,14*%
%TO.N,A5*%
X104394000Y-45720000D03*
%TO.P,U2,2*%
%TO.N,RWB*%
X81534000Y-53340000D03*
%TO.P,U2,13*%
%TO.N,A6*%
X106934000Y-45720000D03*
D12*
%TO.P,U2,1*%
%TO.N,PHI2*%
X78994000Y-53340000D03*
%TD*%
D16*
%TO.P,U1,1*%
%TO.N,Net-(SW1-Pad1)*%
X69088000Y-38608000D03*
D17*
%TO.P,U1,3*%
%TO.N,GND*%
X74168000Y-38608000D03*
%TO.P,U1,2*%
%TO.N,Vcc*%
X71628000Y-38608000D03*
%TD*%
D12*
%TO.P,U6,1*%
%TO.N,Net-(U6-Pad1)*%
X54991000Y-92964000D03*
D13*
%TO.P,U6,21*%
%TO.N,GND*%
X103251000Y-77724000D03*
%TO.P,U6,2*%
%TO.N,RDY*%
X57531000Y-92964000D03*
%TO.P,U6,22*%
%TO.N,A12*%
X100711000Y-77724000D03*
%TO.P,U6,3*%
%TO.N,Net-(U6-Pad3)*%
X60071000Y-92964000D03*
%TO.P,U6,23*%
%TO.N,A13*%
X98171000Y-77724000D03*
%TO.P,U6,4*%
%TO.N,IRQB*%
X62611000Y-92964000D03*
%TO.P,U6,24*%
%TO.N,A14*%
X95631000Y-77724000D03*
%TO.P,U6,5*%
%TO.N,Net-(U6-Pad5)*%
X65151000Y-92964000D03*
%TO.P,U6,25*%
%TO.N,A15*%
X93091000Y-77724000D03*
%TO.P,U6,6*%
%TO.N,NMIB*%
X67691000Y-92964000D03*
%TO.P,U6,26*%
%TO.N,D7*%
X90551000Y-77724000D03*
%TO.P,U6,7*%
%TO.N,Net-(U6-Pad7)*%
X70231000Y-92964000D03*
%TO.P,U6,27*%
%TO.N,D6*%
X88011000Y-77724000D03*
%TO.P,U6,8*%
%TO.N,Vcc*%
X72771000Y-92964000D03*
%TO.P,U6,28*%
%TO.N,D5*%
X85471000Y-77724000D03*
%TO.P,U6,9*%
%TO.N,A0*%
X75311000Y-92964000D03*
%TO.P,U6,29*%
%TO.N,D4*%
X82931000Y-77724000D03*
%TO.P,U6,10*%
%TO.N,A1*%
X77851000Y-92964000D03*
%TO.P,U6,30*%
%TO.N,D3*%
X80391000Y-77724000D03*
%TO.P,U6,11*%
%TO.N,A2*%
X80391000Y-92964000D03*
%TO.P,U6,31*%
%TO.N,D2*%
X77851000Y-77724000D03*
%TO.P,U6,12*%
%TO.N,A3*%
X82931000Y-92964000D03*
%TO.P,U6,32*%
%TO.N,D1*%
X75311000Y-77724000D03*
%TO.P,U6,13*%
%TO.N,A4*%
X85471000Y-92964000D03*
%TO.P,U6,33*%
%TO.N,D0*%
X72771000Y-77724000D03*
%TO.P,U6,14*%
%TO.N,A5*%
X88011000Y-92964000D03*
%TO.P,U6,34*%
%TO.N,RWB*%
X70231000Y-77724000D03*
%TO.P,U6,15*%
%TO.N,A6*%
X90551000Y-92964000D03*
%TO.P,U6,35*%
%TO.N,Net-(U6-Pad35)*%
X67691000Y-77724000D03*
%TO.P,U6,16*%
%TO.N,A7*%
X93091000Y-92964000D03*
%TO.P,U6,36*%
%TO.N,BE*%
X65151000Y-77724000D03*
%TO.P,U6,17*%
%TO.N,A8*%
X95631000Y-92964000D03*
%TO.P,U6,37*%
%TO.N,PHI2*%
X62611000Y-77724000D03*
%TO.P,U6,18*%
%TO.N,A9*%
X98171000Y-92964000D03*
%TO.P,U6,38*%
%TO.N,SOB*%
X60071000Y-77724000D03*
%TO.P,U6,19*%
%TO.N,A10*%
X100711000Y-92964000D03*
%TO.P,U6,39*%
%TO.N,Net-(U6-Pad39)*%
X57531000Y-77724000D03*
%TO.P,U6,20*%
%TO.N,A11*%
X103251000Y-92964000D03*
%TO.P,U6,40*%
%TO.N,RESB*%
X54991000Y-77724000D03*
%TD*%
D18*
%TO.P,SW1,1*%
%TO.N,Net-(SW1-Pad1)*%
X63246000Y-51585000D03*
%TO.P,SW1,2*%
%TO.N,GND*%
X58746000Y-51585000D03*
%TO.P,SW1,1*%
%TO.N,Net-(SW1-Pad1)*%
X63246000Y-45085000D03*
%TO.P,SW1,2*%
%TO.N,GND*%
X58746000Y-45085000D03*
%TD*%
D13*
%TO.P,RN1,8*%
%TO.N,Net-(RN1-Pad8)*%
X95123000Y-73152000D03*
%TO.P,RN1,7*%
%TO.N,IRQ2B*%
X92583000Y-73152000D03*
%TO.P,RN1,6*%
%TO.N,NMIB*%
X90043000Y-73152000D03*
%TO.P,RN1,5*%
%TO.N,RDY*%
X87503000Y-73152000D03*
%TO.P,RN1,4*%
%TO.N,BE*%
X84963000Y-73152000D03*
%TO.P,RN1,3*%
%TO.N,SOB*%
X82423000Y-73152000D03*
%TO.P,RN1,2*%
%TO.N,Net-(D1-Pad2)*%
X79883000Y-73152000D03*
D12*
%TO.P,RN1,1*%
%TO.N,Vcc*%
X77343000Y-73152000D03*
%TD*%
D19*
%TO.P,J5,8*%
%TO.N,GND*%
X147447000Y-96901000D03*
%TO.P,J5,7*%
%TO.N,Vcc*%
X147447000Y-94361000D03*
%TO.P,J5,6*%
%TO.N,OP7*%
X147447000Y-91821000D03*
%TO.P,J5,5*%
%TO.N,OP6*%
X147447000Y-89281000D03*
%TO.P,J5,4*%
%TO.N,OP5*%
X147447000Y-86741000D03*
%TO.P,J5,3*%
%TO.N,OP4*%
X147447000Y-84201000D03*
%TO.P,J5,2*%
%TO.N,OP3*%
X147447000Y-81661000D03*
D20*
%TO.P,J5,1*%
%TO.N,OP2*%
X147447000Y-79121000D03*
%TD*%
D19*
%TO.P,J4,8*%
%TO.N,GND*%
X147447000Y-73914000D03*
%TO.P,J4,7*%
%TO.N,Vcc*%
X147447000Y-71374000D03*
%TO.P,J4,6*%
%TO.N,Net-(J4-Pad6)*%
X147447000Y-68834000D03*
%TO.P,J4,5*%
%TO.N,IP6*%
X147447000Y-66294000D03*
%TO.P,J4,4*%
%TO.N,IP5*%
X147447000Y-63754000D03*
%TO.P,J4,3*%
%TO.N,IP4*%
X147447000Y-61214000D03*
%TO.P,J4,2*%
%TO.N,IP3*%
X147447000Y-58674000D03*
D20*
%TO.P,J4,1*%
%TO.N,IP2*%
X147447000Y-56134000D03*
%TD*%
D19*
%TO.P,J7,12*%
%TO.N,GND*%
X122174000Y-121666000D03*
%TO.P,J7,11*%
%TO.N,Vcc*%
X119634000Y-121666000D03*
%TO.P,J7,10*%
%TO.N,CB2*%
X117094000Y-121666000D03*
%TO.P,J7,9*%
%TO.N,CB1*%
X114554000Y-121666000D03*
%TO.P,J7,8*%
%TO.N,PB7*%
X112014000Y-121666000D03*
%TO.P,J7,7*%
%TO.N,PB6*%
X109474000Y-121666000D03*
%TO.P,J7,6*%
%TO.N,PB5*%
X106934000Y-121666000D03*
%TO.P,J7,5*%
%TO.N,PB4*%
X104394000Y-121666000D03*
%TO.P,J7,4*%
%TO.N,PB3*%
X101854000Y-121666000D03*
%TO.P,J7,3*%
%TO.N,PB2*%
X99314000Y-121666000D03*
%TO.P,J7,2*%
%TO.N,PB1*%
X96774000Y-121666000D03*
D20*
%TO.P,J7,1*%
%TO.N,PB0*%
X94234000Y-121666000D03*
%TD*%
D19*
%TO.P,J6,12*%
%TO.N,GND*%
X88392000Y-121666000D03*
%TO.P,J6,11*%
%TO.N,Vcc*%
X85852000Y-121666000D03*
%TO.P,J6,10*%
%TO.N,CA2*%
X83312000Y-121666000D03*
%TO.P,J6,9*%
%TO.N,CA1*%
X80772000Y-121666000D03*
%TO.P,J6,8*%
%TO.N,PA7*%
X78232000Y-121666000D03*
%TO.P,J6,7*%
%TO.N,PA6*%
X75692000Y-121666000D03*
%TO.P,J6,6*%
%TO.N,PA5*%
X73152000Y-121666000D03*
%TO.P,J6,5*%
%TO.N,PA4*%
X70612000Y-121666000D03*
%TO.P,J6,4*%
%TO.N,PA3*%
X68072000Y-121666000D03*
%TO.P,J6,3*%
%TO.N,PA2*%
X65532000Y-121666000D03*
%TO.P,J6,2*%
%TO.N,PA1*%
X62992000Y-121666000D03*
D20*
%TO.P,J6,1*%
%TO.N,PA0*%
X60452000Y-121666000D03*
%TD*%
D21*
%TO.P,J1,3*%
%TO.N,GND*%
X56260000Y-36370000D03*
D22*
%TO.P,J1,2*%
X60960000Y-33370000D03*
D23*
%TO.P,J1,1*%
%TO.N,Vcc*%
X60960000Y-39370000D03*
%TD*%
D24*
%TO.P,D1,2*%
%TO.N,Net-(D1-Pad2)*%
X71628000Y-45212000D03*
D25*
%TO.P,D1,1*%
%TO.N,GND*%
X71628000Y-47752000D03*
%TD*%
D11*
%TO.P,C12,2*%
%TO.N,GND*%
X132247000Y-42545000D03*
%TO.P,C12,1*%
%TO.N,Net-(C12-Pad1)*%
X134747000Y-42545000D03*
%TD*%
%TO.P,C13,2*%
%TO.N,Net-(C13-Pad2)*%
X140549000Y-42545000D03*
%TO.P,C13,1*%
%TO.N,Net-(C13-Pad1)*%
X138049000Y-42545000D03*
%TD*%
%TO.P,C15,2*%
%TO.N,Net-(C15-Pad2)*%
X140295000Y-56769000D03*
%TO.P,C15,1*%
%TO.N,Net-(C15-Pad1)*%
X137795000Y-56769000D03*
%TD*%
%TO.P,C14,2*%
%TO.N,Net-(C14-Pad2)*%
X143891000Y-50713000D03*
%TO.P,C14,1*%
%TO.N,Vcc*%
X143891000Y-53213000D03*
%TD*%
%TO.P,C4,2*%
%TO.N,GND*%
X130723000Y-56769000D03*
%TO.P,C4,1*%
%TO.N,Vcc*%
X133223000Y-56769000D03*
%TD*%
%TO.P,C8,1*%
%TO.N,Vcc*%
X108204000Y-82169000D03*
%TO.P,C8,2*%
%TO.N,GND*%
X110704000Y-82169000D03*
%TD*%
%TO.P,C10,2*%
%TO.N,GND*%
X106807000Y-102576000D03*
%TO.P,C10,1*%
%TO.N,Vcc*%
X106807000Y-100076000D03*
%TD*%
%TO.P,C7,2*%
%TO.N,GND*%
X116586000Y-67477000D03*
%TO.P,C7,1*%
%TO.N,Vcc*%
X116586000Y-69977000D03*
%TD*%
%TO.P,C6,2*%
%TO.N,GND*%
X105370000Y-72517000D03*
%TO.P,C6,1*%
%TO.N,Vcc*%
X102870000Y-72517000D03*
%TD*%
%TO.P,C3,2*%
%TO.N,GND*%
X81367000Y-57531000D03*
%TO.P,C3,1*%
%TO.N,Vcc*%
X78867000Y-57531000D03*
%TD*%
%TO.P,C2,2*%
%TO.N,GND*%
X81494000Y-42545000D03*
%TO.P,C2,1*%
%TO.N,Vcc*%
X78994000Y-42545000D03*
%TD*%
%TO.P,C5,2*%
%TO.N,GND*%
X61809000Y-69723000D03*
%TO.P,C5,1*%
%TO.N,Vcc*%
X59309000Y-69723000D03*
%TD*%
%TO.P,C11,2*%
%TO.N,GND*%
X106426000Y-112689000D03*
%TO.P,C11,1*%
%TO.N,Vcc*%
X106426000Y-115189000D03*
%TD*%
%TO.P,C9,1*%
%TO.N,Vcc*%
X72771000Y-96266000D03*
%TO.P,C9,2*%
%TO.N,GND*%
X70271000Y-96266000D03*
%TD*%
%TO.P,C1,2*%
%TO.N,GND*%
X71628000Y-31710000D03*
D12*
%TO.P,C1,1*%
%TO.N,Vcc*%
X71628000Y-29210000D03*
%TD*%
D26*
%TO.N,Net-(D1-Pad2)*%
X79883000Y-73152000D02*
X79883000Y-72161200D01*
X71628000Y-45212000D02*
X72738300Y-45212000D01*
X72738300Y-45212000D02*
X80517000Y-52990700D01*
X80517000Y-52990700D02*
X80517000Y-54953800D01*
X80517000Y-54953800D02*
X82426600Y-56863400D01*
X82426600Y-56863400D02*
X82426600Y-69617600D01*
X82426600Y-69617600D02*
X79883000Y-72161200D01*
%TO.N,RESET*%
X126746000Y-64643000D02*
X125222000Y-63119000D01*
X125222000Y-63119000D02*
X125222000Y-57023000D01*
%TO.N,CA2*%
X57531000Y-99949000D02*
X58521800Y-99949000D01*
X83312000Y-121666000D02*
X82271200Y-121666000D01*
X82271200Y-121666000D02*
X76581000Y-115975800D01*
X76581000Y-115975800D02*
X76581000Y-115049700D01*
X76581000Y-115049700D02*
X67551200Y-106019900D01*
X67551200Y-106019900D02*
X64592700Y-106019900D01*
X64592700Y-106019900D02*
X58521800Y-99949000D01*
%TO.N,PA7*%
X78232000Y-121666000D02*
X78232000Y-120625200D01*
X78232000Y-120625200D02*
X75311000Y-117704200D01*
X75311000Y-117704200D02*
X75311000Y-115189000D01*
%TO.N,PA6*%
X75692000Y-121666000D02*
X75692000Y-120625200D01*
X75692000Y-120625200D02*
X72771000Y-117704200D01*
X72771000Y-117704200D02*
X72771000Y-115189000D01*
%TO.N,PA0*%
X57531000Y-115189000D02*
X57531000Y-116179800D01*
X60452000Y-121666000D02*
X60452000Y-119100800D01*
X60452000Y-119100800D02*
X57531000Y-116179800D01*
%TO.N,CTSa*%
X115189000Y-45847000D02*
X114198200Y-45847000D01*
X114198200Y-45847000D02*
X108570500Y-40219300D01*
X108570500Y-40219300D02*
X103724700Y-40219300D01*
X103724700Y-40219300D02*
X100079900Y-36574500D01*
X100079900Y-36574500D02*
X93068500Y-36574500D01*
X93068500Y-36574500D02*
X91881000Y-35387000D01*
%TO.N,RxDa*%
X127889000Y-53467000D02*
X127889000Y-52476200D01*
X127889000Y-52476200D02*
X121539000Y-46126200D01*
X121539000Y-46126200D02*
X121539000Y-45703400D01*
X121539000Y-45703400D02*
X120390800Y-44555200D01*
X120390800Y-44555200D02*
X117225400Y-44555200D01*
X117225400Y-44555200D02*
X116421800Y-45358800D01*
X116421800Y-45358800D02*
X116421800Y-46025600D01*
X116421800Y-46025600D02*
X115574700Y-46872700D01*
X115574700Y-46872700D02*
X112176600Y-46872700D01*
X112176600Y-46872700D02*
X108063300Y-42759400D01*
X108063300Y-42759400D02*
X100568400Y-42759400D01*
X100568400Y-42759400D02*
X96036000Y-38227000D01*
%TO.N,CTSb*%
X132969000Y-45847000D02*
X132969000Y-44856200D01*
X132969000Y-44856200D02*
X126806000Y-38693200D01*
X126806000Y-38693200D02*
X126806000Y-35387000D01*
%TO.N,IRQ2B*%
X89027000Y-60706000D02*
X89027000Y-61696800D01*
X92583000Y-73152000D02*
X92583000Y-65252800D01*
X92583000Y-65252800D02*
X89027000Y-61696800D01*
%TO.N,RDY*%
X87503000Y-72161200D02*
X87503000Y-66021500D01*
X87503000Y-66021500D02*
X82935300Y-61453800D01*
X82935300Y-61453800D02*
X82935300Y-48112100D01*
X82935300Y-48112100D02*
X81534000Y-46710800D01*
X81534000Y-45720000D02*
X81534000Y-46710800D01*
X87503000Y-73152000D02*
X87503000Y-72161200D01*
%TO.N,Net-(SW1-Pad1)*%
X69088000Y-38608000D02*
X69088000Y-39548800D01*
X63246000Y-45085000D02*
X68782200Y-39548800D01*
X68782200Y-39548800D02*
X69088000Y-39548800D01*
X63246000Y-45085000D02*
X63246000Y-51585000D01*
%TO.N,RESB*%
X70231000Y-99949000D02*
X70231000Y-98958200D01*
X54991000Y-77724000D02*
X54991000Y-78714800D01*
X54991000Y-78714800D02*
X68681900Y-92405700D01*
X68681900Y-92405700D02*
X68681900Y-97409100D01*
X68681900Y-97409100D02*
X70231000Y-98958200D01*
%TO.N,A11*%
X95224800Y-53340000D02*
X96240800Y-52324000D01*
X96240800Y-52324000D02*
X97212400Y-52324000D01*
X97212400Y-52324000D02*
X98044000Y-53155600D01*
X98044000Y-53155600D02*
X98044000Y-53797200D01*
X98044000Y-53797200D02*
X99416400Y-55169600D01*
X99416400Y-55169600D02*
X99416400Y-88138600D01*
X99416400Y-88138600D02*
X103251000Y-91973200D01*
X94234000Y-53340000D02*
X95224800Y-53340000D01*
X103251000Y-92964000D02*
X103251000Y-91973200D01*
X120904000Y-85344000D02*
X120904000Y-86334800D01*
X122682000Y-99949000D02*
X122682000Y-98958200D01*
X122682000Y-98958200D02*
X122271300Y-98547500D01*
X122271300Y-98547500D02*
X122271300Y-87702100D01*
X122271300Y-87702100D02*
X120904000Y-86334800D01*
%TO.N,A10*%
X96774000Y-54330800D02*
X99162100Y-56718900D01*
X99162100Y-56718900D02*
X99162100Y-90424300D01*
X99162100Y-90424300D02*
X100711000Y-91973200D01*
X100711000Y-92964000D02*
X100711000Y-91973200D01*
X96774000Y-53340000D02*
X96774000Y-54330800D01*
X125984000Y-85344000D02*
X125984000Y-86334800D01*
X127762000Y-99949000D02*
X127762000Y-98958200D01*
X127762000Y-98958200D02*
X127024500Y-98220700D01*
X127024500Y-98220700D02*
X127024500Y-87375300D01*
X127024500Y-87375300D02*
X125984000Y-86334800D01*
%TO.N,A9*%
X99314000Y-53340000D02*
X99314000Y-54330800D01*
X98171000Y-92964000D02*
X99161800Y-92964000D01*
X99161800Y-92964000D02*
X100189400Y-93991600D01*
X100189400Y-93991600D02*
X103689200Y-93991600D01*
X103689200Y-93991600D02*
X104292100Y-93388700D01*
X104292100Y-93388700D02*
X104292100Y-87102100D01*
X104292100Y-87102100D02*
X99707900Y-82517900D01*
X99707900Y-82517900D02*
X99707900Y-54724700D01*
X99707900Y-54724700D02*
X99314000Y-54330800D01*
X118364000Y-85344000D02*
X118364000Y-86334800D01*
X120142000Y-99949000D02*
X120142000Y-98958200D01*
X120142000Y-98958200D02*
X119604000Y-98420200D01*
X119604000Y-98420200D02*
X119604000Y-87574800D01*
X119604000Y-87574800D02*
X118364000Y-86334800D01*
%TO.N,PHI2*%
X93091000Y-99949000D02*
X92100200Y-99949000D01*
X62611000Y-77724000D02*
X62611000Y-78714800D01*
X62611000Y-78714800D02*
X71501000Y-87604800D01*
X71501000Y-87604800D02*
X71501000Y-100089100D01*
X71501000Y-100089100D02*
X72369800Y-100957900D01*
X72369800Y-100957900D02*
X91091300Y-100957900D01*
X91091300Y-100957900D02*
X92100200Y-99949000D01*
X62611000Y-77292200D02*
X62611000Y-77724000D01*
X62611000Y-77292200D02*
X62611000Y-76733200D01*
X62847700Y-61450700D02*
X59055000Y-57658000D01*
X78003200Y-53340000D02*
X69892500Y-61450700D01*
X69892500Y-61450700D02*
X62847700Y-61450700D01*
X62611000Y-76733200D02*
X62847700Y-76496500D01*
X62847700Y-76496500D02*
X62847700Y-61450700D01*
X78994000Y-53340000D02*
X78003200Y-53340000D01*
%TO.N,A8*%
X102844800Y-53340000D02*
X103837100Y-52347700D01*
X103837100Y-52347700D02*
X104861600Y-52347700D01*
X104861600Y-52347700D02*
X105595900Y-53082000D01*
X105595900Y-53082000D02*
X105595900Y-66429200D01*
X105595900Y-66429200D02*
X115824000Y-76657300D01*
X115824000Y-76657300D02*
X115824000Y-84353200D01*
X115824000Y-85344000D02*
X115824000Y-86334800D01*
X117602000Y-99949000D02*
X117602000Y-98958200D01*
X117602000Y-98958200D02*
X114800400Y-96156600D01*
X114800400Y-96156600D02*
X114800400Y-87358400D01*
X114800400Y-87358400D02*
X115824000Y-86334800D01*
X101854000Y-53340000D02*
X102844800Y-53340000D01*
X115824000Y-85344000D02*
X115824000Y-84353200D01*
%TO.N,A7*%
X115062000Y-114198200D02*
X113800900Y-112937100D01*
X113800900Y-112937100D02*
X113800900Y-94471700D01*
X113800900Y-94471700D02*
X113284000Y-93954800D01*
X113284000Y-91973200D02*
X112119300Y-90808500D01*
X112119300Y-90808500D02*
X112119300Y-73516900D01*
X112119300Y-73516900D02*
X104394000Y-65791600D01*
X104394000Y-65791600D02*
X104394000Y-53340000D01*
X113284000Y-92964000D02*
X113284000Y-91973200D01*
X113284000Y-92964000D02*
X113284000Y-93954800D01*
X115062000Y-115189000D02*
X115062000Y-114198200D01*
%TO.N,A6*%
X117602000Y-115189000D02*
X117602000Y-114198200D01*
X115824000Y-92964000D02*
X115824000Y-93954800D01*
X115824000Y-93954800D02*
X118599900Y-96730700D01*
X118599900Y-96730700D02*
X118599900Y-113200300D01*
X118599900Y-113200300D02*
X117602000Y-114198200D01*
X115824000Y-92468600D02*
X115824000Y-92964000D01*
X115824000Y-92468600D02*
X115824000Y-91973200D01*
X106934000Y-45720000D02*
X106934000Y-46710800D01*
X115824000Y-91973200D02*
X116814900Y-90982300D01*
X116814900Y-90982300D02*
X116814900Y-73255200D01*
X116814900Y-73255200D02*
X112475000Y-68915300D01*
X112475000Y-68915300D02*
X112475000Y-64809800D01*
X112475000Y-64809800D02*
X108725000Y-61059800D01*
X108725000Y-61059800D02*
X108725000Y-48501800D01*
X108725000Y-48501800D02*
X106934000Y-46710800D01*
%TO.N,RWB*%
X82426700Y-71730400D02*
X82681000Y-71476100D01*
X82681000Y-71476100D02*
X82681000Y-55477800D01*
X82681000Y-55477800D02*
X81534000Y-54330800D01*
X99720200Y-99949000D02*
X98712600Y-100956600D01*
X98712600Y-100956600D02*
X97753600Y-100956600D01*
X97753600Y-100956600D02*
X96901000Y-100104000D01*
X96901000Y-100104000D02*
X96901000Y-98958100D01*
X96901000Y-98958100D02*
X91821000Y-93878100D01*
X91821000Y-93878100D02*
X91821000Y-77523300D01*
X91821000Y-77523300D02*
X88582100Y-74284400D01*
X88582100Y-74284400D02*
X84679800Y-74284400D01*
X84679800Y-74284400D02*
X83693000Y-73297600D01*
X83693000Y-73297600D02*
X83693000Y-72996700D01*
X83693000Y-72996700D02*
X82426700Y-71730400D01*
X71221800Y-77724000D02*
X72212600Y-76733200D01*
X72212600Y-76733200D02*
X77734700Y-76733200D01*
X77734700Y-76733200D02*
X81382200Y-73085700D01*
X81382200Y-73085700D02*
X81382200Y-72774900D01*
X81382200Y-72774900D02*
X82426700Y-71730400D01*
X70231000Y-77724000D02*
X71221800Y-77724000D01*
X100711000Y-99949000D02*
X99720200Y-99949000D01*
X81534000Y-53340000D02*
X81534000Y-54330800D01*
%TO.N,A5*%
X104394000Y-45720000D02*
X105384800Y-45720000D01*
X118364000Y-92964000D02*
X118364000Y-91973200D01*
X118364000Y-91973200D02*
X117373200Y-90982400D01*
X117373200Y-90982400D02*
X117373200Y-73453800D01*
X117373200Y-73453800D02*
X114463600Y-70544200D01*
X114463600Y-70544200D02*
X114463600Y-61823200D01*
X114463600Y-61823200D02*
X109101300Y-56460900D01*
X109101300Y-56460900D02*
X109101300Y-46472300D01*
X109101300Y-46472300D02*
X107344100Y-44715100D01*
X107344100Y-44715100D02*
X106389700Y-44715100D01*
X106389700Y-44715100D02*
X105384800Y-45720000D01*
X118364000Y-93211700D02*
X118364000Y-92964000D01*
X118364000Y-93211700D02*
X118364000Y-93954800D01*
X120142000Y-115189000D02*
X120142000Y-114198200D01*
X118364000Y-93954800D02*
X118936500Y-94527300D01*
X118936500Y-94527300D02*
X118936500Y-112992700D01*
X118936500Y-112992700D02*
X120142000Y-114198200D01*
%TO.N,D0*%
X72771000Y-99949000D02*
X72771000Y-98958200D01*
X72771000Y-77724000D02*
X72771000Y-78714800D01*
X72771000Y-78714800D02*
X71755400Y-79730400D01*
X71755400Y-79730400D02*
X71755400Y-97942600D01*
X71755400Y-97942600D02*
X72771000Y-98958200D01*
X133604000Y-91973200D02*
X132572100Y-90941300D01*
X132572100Y-90941300D02*
X132572100Y-84242400D01*
X132572100Y-84242400D02*
X135526700Y-81287800D01*
X135526700Y-81287800D02*
X135526700Y-77377200D01*
X135526700Y-77377200D02*
X137085200Y-75818700D01*
X137085200Y-75818700D02*
X137202000Y-75818700D01*
X137202000Y-75818700D02*
X137808100Y-75212600D01*
X137808100Y-75212600D02*
X137808100Y-74429400D01*
X137808100Y-74429400D02*
X136911700Y-73533000D01*
X136911700Y-73533000D02*
X136798100Y-73533000D01*
X136798100Y-73533000D02*
X136003900Y-72738800D01*
X136003900Y-72738800D02*
X136003900Y-64262400D01*
X136003900Y-64262400D02*
X136525400Y-63740900D01*
X136525400Y-63740900D02*
X138543900Y-63740900D01*
X138543900Y-63740900D02*
X139446000Y-64643000D01*
X133604000Y-92964000D02*
X133604000Y-91973200D01*
X133604000Y-93459400D02*
X133604000Y-92964000D01*
X133604000Y-93459400D02*
X133604000Y-93954800D01*
X135382000Y-115189000D02*
X135382000Y-114198200D01*
X133604000Y-93954800D02*
X133832900Y-94183700D01*
X133832900Y-94183700D02*
X133832900Y-112649100D01*
X133832900Y-112649100D02*
X135382000Y-114198200D01*
%TO.N,A4*%
X102844800Y-45720000D02*
X104104000Y-44460800D01*
X104104000Y-44460800D02*
X107449400Y-44460800D01*
X107449400Y-44460800D02*
X109355700Y-46367100D01*
X109355700Y-46367100D02*
X109355700Y-56067900D01*
X109355700Y-56067900D02*
X119858400Y-66570600D01*
X119858400Y-66570600D02*
X119858400Y-90927600D01*
X119858400Y-90927600D02*
X120904000Y-91973200D01*
X120904000Y-92964000D02*
X120904000Y-91973200D01*
X101854000Y-45720000D02*
X102844800Y-45720000D01*
X120904000Y-93459400D02*
X120904000Y-92964000D01*
X120904000Y-93459400D02*
X120904000Y-93954800D01*
X122682000Y-115189000D02*
X122682000Y-114198200D01*
X122682000Y-114198200D02*
X121314500Y-112830700D01*
X121314500Y-112830700D02*
X121314500Y-94365300D01*
X121314500Y-94365300D02*
X120904000Y-93954800D01*
%TO.N,D1*%
X137922000Y-115189000D02*
X137922000Y-114198200D01*
X136144000Y-92964000D02*
X136144000Y-93954800D01*
X136144000Y-93954800D02*
X136372900Y-94183700D01*
X136372900Y-94183700D02*
X136372900Y-112649100D01*
X136372900Y-112649100D02*
X137922000Y-114198200D01*
X136144000Y-92468600D02*
X136144000Y-92964000D01*
X136144000Y-92468600D02*
X136144000Y-91973200D01*
X139446000Y-77343000D02*
X139446000Y-79377500D01*
X139446000Y-79377500D02*
X137351900Y-81471600D01*
X137351900Y-81471600D02*
X137351900Y-90765300D01*
X137351900Y-90765300D02*
X136144000Y-91973200D01*
X75311000Y-99949000D02*
X75311000Y-98958200D01*
X75311000Y-77724000D02*
X75311000Y-78714800D01*
X75311000Y-78714800D02*
X74312600Y-79713200D01*
X74312600Y-79713200D02*
X74312600Y-97959800D01*
X74312600Y-97959800D02*
X75311000Y-98958200D01*
%TO.N,A3*%
X125222000Y-115189000D02*
X125222000Y-114198200D01*
X123444000Y-92964000D02*
X123444000Y-93954800D01*
X123444000Y-93954800D02*
X123672900Y-94183700D01*
X123672900Y-94183700D02*
X123672900Y-112649100D01*
X123672900Y-112649100D02*
X125222000Y-114198200D01*
%TO.N,D2*%
X138684000Y-92964000D02*
X138684000Y-91973200D01*
X136906000Y-67183000D02*
X138369400Y-68646400D01*
X138369400Y-68646400D02*
X138369400Y-72522000D01*
X138369400Y-72522000D02*
X139380400Y-73533000D01*
X139380400Y-73533000D02*
X139501500Y-73533000D01*
X139501500Y-73533000D02*
X140380500Y-74412000D01*
X140380500Y-74412000D02*
X140380500Y-80988600D01*
X140380500Y-80988600D02*
X137693100Y-83676000D01*
X137693100Y-83676000D02*
X137693100Y-90982300D01*
X137693100Y-90982300D02*
X138684000Y-91973200D01*
X138684000Y-92964000D02*
X138684000Y-93954800D01*
X140462000Y-115189000D02*
X140462000Y-114198200D01*
X140462000Y-114198200D02*
X139094500Y-112830700D01*
X139094500Y-112830700D02*
X139094500Y-94365300D01*
X139094500Y-94365300D02*
X138684000Y-93954800D01*
X77851000Y-99949000D02*
X77851000Y-98958200D01*
X77851000Y-77724000D02*
X77851000Y-78714800D01*
X77851000Y-78714800D02*
X76856500Y-79709300D01*
X76856500Y-79709300D02*
X76856500Y-97963700D01*
X76856500Y-97963700D02*
X77851000Y-98958200D01*
%TO.N,A2*%
X125984000Y-92964000D02*
X125984000Y-91973200D01*
X127762000Y-115189000D02*
X127762000Y-114198200D01*
X125984000Y-92964000D02*
X125984000Y-93954800D01*
X125984000Y-93954800D02*
X126212900Y-94183700D01*
X126212900Y-94183700D02*
X126212900Y-112649100D01*
X126212900Y-112649100D02*
X127762000Y-114198200D01*
X121666000Y-77343000D02*
X121666000Y-80668000D01*
X121666000Y-80668000D02*
X124714000Y-83716000D01*
X124714000Y-83716000D02*
X124714000Y-90703200D01*
X124714000Y-90703200D02*
X125984000Y-91973200D01*
%TO.N,D3*%
X80391000Y-99949000D02*
X80391000Y-98958200D01*
X80391000Y-77724000D02*
X80391000Y-78714800D01*
X80391000Y-78714800D02*
X81385500Y-79709300D01*
X81385500Y-79709300D02*
X81385500Y-97963700D01*
X81385500Y-97963700D02*
X80391000Y-98958200D01*
X141224000Y-85344000D02*
X141224000Y-86334800D01*
X141224000Y-86334800D02*
X143002000Y-88112800D01*
X143002000Y-88112800D02*
X143002000Y-99949000D01*
%TO.N,A1*%
X130302000Y-115189000D02*
X130302000Y-114198200D01*
X128524000Y-92964000D02*
X128524000Y-93954800D01*
X128524000Y-93954800D02*
X131294100Y-96724900D01*
X131294100Y-96724900D02*
X131294100Y-113206100D01*
X131294100Y-113206100D02*
X130302000Y-114198200D01*
%TO.N,D4*%
X82931000Y-99949000D02*
X82931000Y-98958200D01*
X82931000Y-77724000D02*
X82931000Y-78714800D01*
X82931000Y-78714800D02*
X81930800Y-79715000D01*
X81930800Y-79715000D02*
X81930800Y-97958000D01*
X81930800Y-97958000D02*
X82931000Y-98958200D01*
X138684000Y-85344000D02*
X138684000Y-86334800D01*
X140462000Y-99949000D02*
X140462000Y-98958200D01*
X140462000Y-98958200D02*
X140051300Y-98547500D01*
X140051300Y-98547500D02*
X140051300Y-87702100D01*
X140051300Y-87702100D02*
X138684000Y-86334800D01*
X138684000Y-84353200D02*
X140634900Y-82402300D01*
X140634900Y-82402300D02*
X140634900Y-68371900D01*
X140634900Y-68371900D02*
X139446000Y-67183000D01*
X138684000Y-85344000D02*
X138684000Y-84353200D01*
%TO.N,A0*%
X132842000Y-115189000D02*
X132842000Y-114198200D01*
X131064000Y-92964000D02*
X131064000Y-93954800D01*
X131064000Y-93954800D02*
X131614600Y-94505400D01*
X131614600Y-94505400D02*
X131614600Y-112970800D01*
X131614600Y-112970800D02*
X132842000Y-114198200D01*
X131064000Y-92468600D02*
X131064000Y-92964000D01*
X131064000Y-92468600D02*
X131064000Y-91973200D01*
X121666000Y-72263000D02*
X122590400Y-73187400D01*
X122590400Y-73187400D02*
X122590400Y-76229600D01*
X122590400Y-76229600D02*
X122822400Y-76461600D01*
X122822400Y-76461600D02*
X122822400Y-79917600D01*
X122822400Y-79917600D02*
X127533200Y-84628400D01*
X127533200Y-84628400D02*
X127533200Y-88442400D01*
X127533200Y-88442400D02*
X131064000Y-91973200D01*
%TO.N,D5*%
X136144000Y-85344000D02*
X136144000Y-82319800D01*
X136144000Y-82319800D02*
X138191300Y-80272500D01*
X138191300Y-80272500D02*
X138191300Y-76057700D01*
X138191300Y-76057700D02*
X139446000Y-74803000D01*
X85471000Y-99949000D02*
X85471000Y-98958200D01*
X85471000Y-77724000D02*
X85471000Y-78714800D01*
X85471000Y-78714800D02*
X86465500Y-79709300D01*
X86465500Y-79709300D02*
X86465500Y-97963700D01*
X86465500Y-97963700D02*
X85471000Y-98958200D01*
%TO.N,D6*%
X88011000Y-99949000D02*
X88011000Y-98958200D01*
X88011000Y-77724000D02*
X88011000Y-78714800D01*
X88011000Y-78714800D02*
X87010800Y-79715000D01*
X87010800Y-79715000D02*
X87010800Y-97958000D01*
X87010800Y-97958000D02*
X88011000Y-98958200D01*
X133604000Y-85344000D02*
X133604000Y-86334800D01*
X135382000Y-99949000D02*
X135382000Y-98958200D01*
X135382000Y-98958200D02*
X134971300Y-98547500D01*
X134971300Y-98547500D02*
X134971300Y-87702100D01*
X134971300Y-87702100D02*
X133604000Y-86334800D01*
X133604000Y-85344000D02*
X133604000Y-84353200D01*
X133604000Y-84353200D02*
X133750900Y-84353200D01*
X133750900Y-84353200D02*
X137808100Y-80296000D01*
X137808100Y-80296000D02*
X137808100Y-76081200D01*
X137808100Y-76081200D02*
X138115000Y-75774300D01*
X138115000Y-75774300D02*
X138115000Y-70932000D01*
X138115000Y-70932000D02*
X136906000Y-69723000D01*
%TO.N,D7*%
X131064000Y-85344000D02*
X131064000Y-86334800D01*
X132842000Y-99949000D02*
X132842000Y-98958200D01*
X132842000Y-98958200D02*
X132317700Y-98433900D01*
X132317700Y-98433900D02*
X132317700Y-87588500D01*
X132317700Y-87588500D02*
X131064000Y-86334800D01*
X90551000Y-99949000D02*
X90551000Y-98958200D01*
X90551000Y-77724000D02*
X90551000Y-78714800D01*
X90551000Y-78714800D02*
X91566600Y-79730400D01*
X91566600Y-79730400D02*
X91566600Y-97942600D01*
X91566600Y-97942600D02*
X90551000Y-98958200D01*
X131064000Y-85344000D02*
X131064000Y-84353200D01*
X131064000Y-84353200D02*
X133388600Y-82028600D01*
X133388600Y-82028600D02*
X133388600Y-79566600D01*
X133388600Y-79566600D02*
X134399100Y-78556100D01*
X134399100Y-78556100D02*
X134515000Y-78556100D01*
X134515000Y-78556100D02*
X135272300Y-77798800D01*
X135272300Y-77798800D02*
X135272300Y-76436700D01*
X135272300Y-76436700D02*
X136906000Y-74803000D01*
%TO.N,A15*%
X84074000Y-53340000D02*
X84074000Y-54330800D01*
X93091000Y-77724000D02*
X93091000Y-76733200D01*
X93091000Y-76733200D02*
X91275800Y-74918000D01*
X91275800Y-74918000D02*
X91275800Y-72983700D01*
X91275800Y-72983700D02*
X87781800Y-69489700D01*
X87781800Y-69489700D02*
X87781800Y-58038600D01*
X87781800Y-58038600D02*
X84074000Y-54330800D01*
%TO.N,A14*%
X86614000Y-54330800D02*
X92849500Y-60566300D01*
X92849500Y-60566300D02*
X92849500Y-61535200D01*
X92849500Y-61535200D02*
X96117800Y-64803500D01*
X96117800Y-64803500D02*
X96117800Y-76246400D01*
X96117800Y-76246400D02*
X95631000Y-76733200D01*
X109982000Y-115189000D02*
X109982000Y-114198200D01*
X105931200Y-94246000D02*
X107213200Y-92964000D01*
X95631000Y-78714800D02*
X97035500Y-80119300D01*
X97035500Y-80119300D02*
X97035500Y-93273400D01*
X97035500Y-93273400D02*
X98008100Y-94246000D01*
X98008100Y-94246000D02*
X105931200Y-94246000D01*
X109982000Y-114198200D02*
X108991200Y-113207400D01*
X108991200Y-113207400D02*
X108991200Y-97306000D01*
X108991200Y-97306000D02*
X105931200Y-94246000D01*
X95631000Y-77724000D02*
X95631000Y-78714800D01*
X95631000Y-77228600D02*
X95631000Y-77724000D01*
X108204000Y-92964000D02*
X107213200Y-92964000D01*
X95631000Y-77228600D02*
X95631000Y-76733200D01*
X86614000Y-53340000D02*
X86614000Y-54330800D01*
%TO.N,A13*%
X89154000Y-53340000D02*
X89154000Y-54330800D01*
X98171000Y-77724000D02*
X98171000Y-63347800D01*
X98171000Y-63347800D02*
X89154000Y-54330800D01*
X113284000Y-86334800D02*
X114546000Y-87596800D01*
X114546000Y-87596800D02*
X114546000Y-98442200D01*
X114546000Y-98442200D02*
X115062000Y-98958200D01*
X113284000Y-85344000D02*
X113284000Y-86334800D01*
X115062000Y-99949000D02*
X115062000Y-98958200D01*
%TO.N,A12*%
X100711000Y-76733200D02*
X100456700Y-76478900D01*
X100456700Y-76478900D02*
X100456700Y-53078500D01*
X100456700Y-53078500D02*
X99447900Y-52069700D01*
X99447900Y-52069700D02*
X93955100Y-52069700D01*
X93955100Y-52069700D02*
X92684800Y-53340000D01*
X110744000Y-91973200D02*
X100711000Y-81940200D01*
X100711000Y-81940200D02*
X100711000Y-77724000D01*
X91694000Y-53340000D02*
X92684800Y-53340000D01*
X100711000Y-77724000D02*
X100711000Y-76733200D01*
X110744000Y-92964000D02*
X110744000Y-93954800D01*
X112522000Y-115189000D02*
X112522000Y-114198200D01*
X112522000Y-114198200D02*
X111154500Y-112830700D01*
X111154500Y-112830700D02*
X111154500Y-94365300D01*
X111154500Y-94365300D02*
X110744000Y-93954800D01*
X110744000Y-92964000D02*
X110744000Y-91973200D01*
%TO.N,WR*%
X84074000Y-45720000D02*
X85064800Y-45720000D01*
X110744000Y-85344000D02*
X110744000Y-84353200D01*
X110744000Y-84353200D02*
X109454100Y-83063300D01*
X109454100Y-83063300D02*
X109454100Y-72395600D01*
X109454100Y-72395600D02*
X100863100Y-63804600D01*
X100863100Y-63804600D02*
X100863100Y-53109000D01*
X100863100Y-53109000D02*
X95133600Y-47379500D01*
X95133600Y-47379500D02*
X94471500Y-47379500D01*
X94471500Y-47379500D02*
X92964000Y-45872000D01*
X92964000Y-45872000D02*
X92964000Y-45586200D01*
X92964000Y-45586200D02*
X92104800Y-44727000D01*
X92104800Y-44727000D02*
X91270600Y-44727000D01*
X91270600Y-44727000D02*
X90424000Y-45573600D01*
X90424000Y-45573600D02*
X90424000Y-45858000D01*
X90424000Y-45858000D02*
X89552300Y-46729700D01*
X89552300Y-46729700D02*
X86074500Y-46729700D01*
X86074500Y-46729700D02*
X85064800Y-45720000D01*
%TO.N,RD*%
X126746000Y-77343000D02*
X126746000Y-68447400D01*
X126746000Y-68447400D02*
X125158400Y-66859800D01*
X125158400Y-66859800D02*
X125158400Y-64247100D01*
X125158400Y-64247100D02*
X124422200Y-63510900D01*
X124422200Y-63510900D02*
X123884900Y-63510900D01*
X123884900Y-63510900D02*
X119278100Y-58904100D01*
X119278100Y-58904100D02*
X119278100Y-45885500D01*
X119278100Y-45885500D02*
X118213100Y-44820500D01*
X118213100Y-44820500D02*
X117327300Y-44820500D01*
X117327300Y-44820500D02*
X116738100Y-45409700D01*
X116738100Y-45409700D02*
X116738100Y-46069000D01*
X116738100Y-46069000D02*
X115623500Y-47183600D01*
X115623500Y-47183600D02*
X111266900Y-47183600D01*
X111266900Y-47183600D02*
X107714200Y-43630900D01*
X107714200Y-43630900D02*
X89693900Y-43630900D01*
X89693900Y-43630900D02*
X87604800Y-45720000D01*
X86614000Y-45720000D02*
X87604800Y-45720000D01*
X123444000Y-85344000D02*
X123444000Y-86334800D01*
X125222000Y-99949000D02*
X125222000Y-98958200D01*
X125222000Y-98958200D02*
X124459600Y-98195800D01*
X124459600Y-98195800D02*
X124459600Y-87350400D01*
X124459600Y-87350400D02*
X123444000Y-86334800D01*
%TO.N,CSROM*%
X94234000Y-45720000D02*
X95224800Y-45720000D01*
X130302000Y-99949000D02*
X130302000Y-98958200D01*
X130302000Y-98958200D02*
X127278900Y-95935100D01*
X127278900Y-95935100D02*
X127278900Y-84733600D01*
X127278900Y-84733600D02*
X122568100Y-80022800D01*
X122568100Y-80022800D02*
X122568100Y-76926600D01*
X122568100Y-76926600D02*
X121591300Y-75949800D01*
X121591300Y-75949800D02*
X121503800Y-75949800D01*
X121503800Y-75949800D02*
X120509600Y-74955600D01*
X120509600Y-74955600D02*
X120509600Y-65393600D01*
X120509600Y-65393600D02*
X109789700Y-54673700D01*
X109789700Y-54673700D02*
X109789700Y-46425600D01*
X109789700Y-46425600D02*
X107567100Y-44203000D01*
X107567100Y-44203000D02*
X101949300Y-44203000D01*
X101949300Y-44203000D02*
X100584000Y-45568300D01*
X100584000Y-45568300D02*
X100584000Y-45853900D01*
X100584000Y-45853900D02*
X99710100Y-46727800D01*
X99710100Y-46727800D02*
X96232600Y-46727800D01*
X96232600Y-46727800D02*
X95224800Y-45720000D01*
%TO.N,CS6522*%
X91694000Y-46710800D02*
X85607800Y-52797000D01*
X85607800Y-52797000D02*
X85607800Y-54061000D01*
X85607800Y-54061000D02*
X88036200Y-56489400D01*
X88036200Y-56489400D02*
X88036200Y-69205800D01*
X88036200Y-69205800D02*
X91592100Y-72761700D01*
X91592100Y-72761700D02*
X91592100Y-74069600D01*
X91592100Y-74069600D02*
X94337000Y-76814500D01*
X94337000Y-76814500D02*
X94337000Y-95124200D01*
X94337000Y-95124200D02*
X98171000Y-98958200D01*
X91694000Y-45720000D02*
X91694000Y-46710800D01*
X98171000Y-99949000D02*
X98171000Y-98958200D01*
%TO.N,CSRAM*%
X128524000Y-85344000D02*
X128524000Y-83017200D01*
X128524000Y-83017200D02*
X125369300Y-79862500D01*
X125369300Y-79862500D02*
X125369300Y-79682700D01*
X125369300Y-79682700D02*
X123941700Y-78255100D01*
X123941700Y-78255100D02*
X123829700Y-78255100D01*
X123829700Y-78255100D02*
X123076800Y-77502200D01*
X123076800Y-77502200D02*
X123076800Y-76273400D01*
X123076800Y-76273400D02*
X122886400Y-76083000D01*
X122886400Y-76083000D02*
X122886400Y-72200200D01*
X122886400Y-72200200D02*
X121679200Y-70993000D01*
X121679200Y-70993000D02*
X121591000Y-70993000D01*
X121591000Y-70993000D02*
X120764000Y-70166000D01*
X120764000Y-70166000D02*
X120764000Y-64389500D01*
X120764000Y-64389500D02*
X110059300Y-53684800D01*
X110059300Y-53684800D02*
X110059300Y-46335600D01*
X110059300Y-46335600D02*
X107666200Y-43942500D01*
X107666200Y-43942500D02*
X99542300Y-43942500D01*
X99542300Y-43942500D02*
X97764800Y-45720000D01*
X96774000Y-45720000D02*
X97764800Y-45720000D01*
%TO.N,IRQ1B*%
X103251000Y-99949000D02*
X103251000Y-98958200D01*
X91567000Y-60706000D02*
X91567000Y-61696800D01*
X91567000Y-61696800D02*
X92886800Y-63016600D01*
X92886800Y-63016600D02*
X92886800Y-68629800D01*
X92886800Y-68629800D02*
X93853000Y-69596000D01*
X93853000Y-69596000D02*
X93853000Y-74142900D01*
X93853000Y-74142900D02*
X94591400Y-74881300D01*
X94591400Y-74881300D02*
X94591400Y-89303600D01*
X94591400Y-89303600D02*
X96699400Y-91411600D01*
X96699400Y-91411600D02*
X96699400Y-93324900D01*
X96699400Y-93324900D02*
X102332700Y-98958200D01*
X102332700Y-98958200D02*
X103251000Y-98958200D01*
%TO.N,DRxDa*%
X125349000Y-53467000D02*
X125349000Y-54457800D01*
X129286000Y-62103000D02*
X128505300Y-61322300D01*
X128505300Y-61322300D02*
X128505300Y-57614100D01*
X128505300Y-57614100D02*
X125349000Y-54457800D01*
%TO.N,DTxDb*%
X127889000Y-45847000D02*
X127889000Y-46837800D01*
X131826000Y-79883000D02*
X132730100Y-78978900D01*
X132730100Y-78978900D02*
X132730100Y-69379500D01*
X132730100Y-69379500D02*
X130923900Y-67573300D01*
X130923900Y-67573300D02*
X130923900Y-60450800D01*
X130923900Y-60450800D02*
X129159000Y-58685900D01*
X129159000Y-58685900D02*
X129159000Y-48107800D01*
X129159000Y-48107800D02*
X127889000Y-46837800D01*
%TO.N,DRxDb*%
X129286000Y-79883000D02*
X128016100Y-78613100D01*
X128016100Y-78613100D02*
X128016100Y-69247900D01*
X128016100Y-69247900D02*
X125412700Y-66644500D01*
X125412700Y-66644500D02*
X125412700Y-64141800D01*
X125412700Y-64141800D02*
X124406800Y-63135900D01*
X124406800Y-63135900D02*
X123954300Y-63135900D01*
X123954300Y-63135900D02*
X120269100Y-59450700D01*
X120269100Y-59450700D02*
X120269100Y-54457800D01*
X120269100Y-54457800D02*
X120269000Y-54457800D01*
X120269000Y-53467000D02*
X120269000Y-54457800D01*
%TO.N,DRTSb*%
X120269000Y-45847000D02*
X120269000Y-46837800D01*
X131826000Y-77343000D02*
X128383900Y-73900900D01*
X128383900Y-73900900D02*
X128383900Y-62465200D01*
X128383900Y-62465200D02*
X126225300Y-60306600D01*
X126225300Y-60306600D02*
X126225300Y-56565800D01*
X126225300Y-56565800D02*
X124079000Y-54419500D01*
X124079000Y-54419500D02*
X124079000Y-50647800D01*
X124079000Y-50647800D02*
X120269000Y-46837800D01*
%TO.N,DCTSa*%
X124206000Y-77343000D02*
X124206000Y-76912400D01*
X124206000Y-76912400D02*
X123289800Y-75996200D01*
X123289800Y-75996200D02*
X123289800Y-64245800D01*
X123289800Y-64245800D02*
X118719800Y-59675800D01*
X118719800Y-59675800D02*
X118719800Y-47828600D01*
X118719800Y-47828600D02*
X117729000Y-46837800D01*
X117729000Y-45847000D02*
X117729000Y-46837800D01*
%TO.N,DCTSb*%
X130429000Y-45847000D02*
X130429000Y-46837800D01*
X124206000Y-74803000D02*
X125844000Y-76441000D01*
X125844000Y-76441000D02*
X125844000Y-77818900D01*
X125844000Y-77818900D02*
X126638100Y-78613000D01*
X126638100Y-78613000D02*
X126751700Y-78613000D01*
X126751700Y-78613000D02*
X128016100Y-79877400D01*
X128016100Y-79877400D02*
X128016100Y-79991000D01*
X128016100Y-79991000D02*
X128837600Y-80812500D01*
X128837600Y-80812500D02*
X132174200Y-80812500D01*
X132174200Y-80812500D02*
X133033400Y-79953300D01*
X133033400Y-79953300D02*
X133033400Y-58306600D01*
X133033400Y-58306600D02*
X131978100Y-57251300D01*
X131978100Y-57251300D02*
X131978100Y-48386900D01*
X131978100Y-48386900D02*
X130429000Y-46837800D01*
%TO.N,OP6*%
X147447000Y-89281000D02*
X147447000Y-88240200D01*
X147447000Y-88240200D02*
X148493700Y-87193500D01*
X148493700Y-87193500D02*
X148493700Y-76432600D01*
X148493700Y-76432600D02*
X146406200Y-74345100D01*
X146406200Y-74345100D02*
X146406200Y-69967500D01*
X146406200Y-69967500D02*
X138541700Y-62103000D01*
X138541700Y-62103000D02*
X136906000Y-62103000D01*
%TO.N,OP4*%
X136906000Y-64643000D02*
X138176000Y-65913000D01*
X138176000Y-65913000D02*
X139482400Y-65913000D01*
X139482400Y-65913000D02*
X144567800Y-70998400D01*
X144567800Y-70998400D02*
X144567800Y-80281100D01*
X144567800Y-80281100D02*
X144567900Y-80281100D01*
X144567900Y-80281100D02*
X147447000Y-83160200D01*
X147447000Y-84201000D02*
X147447000Y-83160200D01*
%TO.N,OP2*%
X147447000Y-79121000D02*
X147447000Y-78080200D01*
X147447000Y-78080200D02*
X146151800Y-76785000D01*
X146151800Y-76785000D02*
X146151800Y-70072800D01*
X146151800Y-70072800D02*
X139268600Y-63189600D01*
X139268600Y-63189600D02*
X135452600Y-63189600D01*
X135452600Y-63189600D02*
X134366000Y-62103000D01*
%TO.N,Net-(C13-Pad2)*%
X140549000Y-42545000D02*
X140589000Y-42585000D01*
X140589000Y-42585000D02*
X140589000Y-45847000D01*
%TO.N,Net-(C13-Pad1)*%
X138049000Y-42545000D02*
X138049000Y-45847000D01*
%TO.N,Net-(C15-Pad1)*%
X137795000Y-56769000D02*
X135509000Y-54483000D01*
X135509000Y-54483000D02*
X135509000Y-53467000D01*
%TO.N,Net-(C12-Pad1)*%
X134747000Y-42545000D02*
X135509000Y-43307000D01*
X135509000Y-43307000D02*
X135509000Y-45847000D01*
%TO.N,Net-(C15-Pad2)*%
X140295000Y-56769000D02*
X140589000Y-56475000D01*
X140589000Y-56475000D02*
X140589000Y-53467000D01*
%TD*%
M02*
