%TF.GenerationSoftware,KiCad,Pcbnew,(5.1.6)-1*%
%TF.CreationDate,2020-10-12T18:58:51-06:00*%
%TF.ProjectId,SO6502,534f3635-3032-42e6-9b69-6361645f7063,1*%
%TF.SameCoordinates,Original*%
%TF.FileFunction,Soldermask,Bot*%
%TF.FilePolarity,Negative*%
%FSLAX46Y46*%
G04 Gerber Fmt 4.6, Leading zero omitted, Abs format (unit mm)*
G04 Created by KiCad (PCBNEW (5.1.6)-1) date 2020-10-12 18:58:51*
%MOMM*%
%LPD*%
G01*
G04 APERTURE LIST*
%ADD10C,4.100000*%
%ADD11C,1.700000*%
%ADD12R,1.700000X1.700000*%
%ADD13O,1.700000X1.700000*%
%ADD14C,1.522400*%
%ADD15R,1.522400X1.522400*%
%ADD16R,1.600000X1.600000*%
%ADD17C,1.600000*%
%ADD18C,2.100000*%
%ADD19O,1.800000X1.800000*%
%ADD20R,1.800000X1.800000*%
%ADD21O,2.350000X4.600000*%
%ADD22O,4.600000X2.350000*%
%ADD23O,5.100000X2.600000*%
%ADD24C,2.200000*%
%ADD25C,1.900000*%
%ADD26R,1.900000X1.900000*%
G04 APERTURE END LIST*
D10*
%TO.C,J3*%
X115691000Y-36807000D03*
X140691000Y-36807000D03*
D11*
X124036000Y-35387000D03*
X126806000Y-35387000D03*
X129576000Y-35387000D03*
X132346000Y-35387000D03*
X122651000Y-38227000D03*
X125421000Y-38227000D03*
X128191000Y-38227000D03*
X130961000Y-38227000D03*
D12*
X133731000Y-38227000D03*
%TD*%
D10*
%TO.C,J2*%
X80766000Y-36807000D03*
X105766000Y-36807000D03*
D11*
X89111000Y-35387000D03*
X91881000Y-35387000D03*
X94651000Y-35387000D03*
X97421000Y-35387000D03*
X87726000Y-38227000D03*
X90496000Y-38227000D03*
X93266000Y-38227000D03*
X96036000Y-38227000D03*
D12*
X98806000Y-38227000D03*
%TD*%
D11*
%TO.C,C16*%
X122722000Y-57023000D03*
X125222000Y-57023000D03*
%TD*%
%TO.C,X2*%
X110617000Y-60452000D03*
X102997000Y-60452000D03*
X102997000Y-68072000D03*
D12*
X110617000Y-68072000D03*
%TD*%
D11*
%TO.C,X1*%
X66675000Y-57658000D03*
X59055000Y-57658000D03*
X59055000Y-65278000D03*
D12*
X66675000Y-65278000D03*
%TD*%
D13*
%TO.C,U3*%
X112649000Y-45847000D03*
X140589000Y-53467000D03*
X115189000Y-45847000D03*
X138049000Y-53467000D03*
X117729000Y-45847000D03*
X135509000Y-53467000D03*
X120269000Y-45847000D03*
X132969000Y-53467000D03*
X122809000Y-45847000D03*
X130429000Y-53467000D03*
X125349000Y-45847000D03*
X127889000Y-53467000D03*
X127889000Y-45847000D03*
X125349000Y-53467000D03*
X130429000Y-45847000D03*
X122809000Y-53467000D03*
X132969000Y-45847000D03*
X120269000Y-53467000D03*
X135509000Y-45847000D03*
X117729000Y-53467000D03*
X138049000Y-45847000D03*
X115189000Y-53467000D03*
X140589000Y-45847000D03*
D12*
X112649000Y-53467000D03*
%TD*%
D14*
%TO.C,U5*%
X124206000Y-62103000D03*
X126746000Y-62103000D03*
X129286000Y-62103000D03*
X131826000Y-62103000D03*
X134366000Y-62103000D03*
X121666000Y-64643000D03*
X126746000Y-64643000D03*
X129286000Y-64643000D03*
X131826000Y-64643000D03*
X134366000Y-64643000D03*
X136906000Y-64643000D03*
X139446000Y-64643000D03*
X139446000Y-67183000D03*
X139446000Y-69723000D03*
X139446000Y-72263000D03*
X139446000Y-74803000D03*
X139446000Y-77343000D03*
X136906000Y-62103000D03*
X136906000Y-67183000D03*
X136906000Y-69723000D03*
X136906000Y-72263000D03*
X136906000Y-74803000D03*
X136906000Y-77343000D03*
X136906000Y-79883000D03*
X134366000Y-79883000D03*
X131826000Y-79883000D03*
X129286000Y-79883000D03*
X126746000Y-79883000D03*
X124206000Y-79883000D03*
X134366000Y-77343000D03*
X131826000Y-77343000D03*
X129286000Y-77343000D03*
X126746000Y-77343000D03*
X124206000Y-77343000D03*
X121666000Y-67183000D03*
X121666000Y-69723000D03*
X121666000Y-77343000D03*
X121666000Y-74803000D03*
X121666000Y-72263000D03*
X124206000Y-64643000D03*
X124206000Y-67183000D03*
X124206000Y-74803000D03*
X124206000Y-72263000D03*
D15*
X124206000Y-69723000D03*
%TD*%
D13*
%TO.C,U8*%
X54991000Y-99949000D03*
X103251000Y-115189000D03*
X57531000Y-99949000D03*
X100711000Y-115189000D03*
X60071000Y-99949000D03*
X98171000Y-115189000D03*
X62611000Y-99949000D03*
X95631000Y-115189000D03*
X65151000Y-99949000D03*
X93091000Y-115189000D03*
X67691000Y-99949000D03*
X90551000Y-115189000D03*
X70231000Y-99949000D03*
X88011000Y-115189000D03*
X72771000Y-99949000D03*
X85471000Y-115189000D03*
X75311000Y-99949000D03*
X82931000Y-115189000D03*
X77851000Y-99949000D03*
X80391000Y-115189000D03*
X80391000Y-99949000D03*
X77851000Y-115189000D03*
X82931000Y-99949000D03*
X75311000Y-115189000D03*
X85471000Y-99949000D03*
X72771000Y-115189000D03*
X88011000Y-99949000D03*
X70231000Y-115189000D03*
X90551000Y-99949000D03*
X67691000Y-115189000D03*
X93091000Y-99949000D03*
X65151000Y-115189000D03*
X95631000Y-99949000D03*
X62611000Y-115189000D03*
X98171000Y-99949000D03*
X60071000Y-115189000D03*
X100711000Y-99949000D03*
X57531000Y-115189000D03*
X103251000Y-99949000D03*
D12*
X54991000Y-115189000D03*
%TD*%
%TO.C,U7*%
X108204000Y-92964000D03*
D13*
X141224000Y-85344000D03*
X110744000Y-92964000D03*
X138684000Y-85344000D03*
X113284000Y-92964000D03*
X136144000Y-85344000D03*
X115824000Y-92964000D03*
X133604000Y-85344000D03*
X118364000Y-92964000D03*
X131064000Y-85344000D03*
X120904000Y-92964000D03*
X128524000Y-85344000D03*
X123444000Y-92964000D03*
X125984000Y-85344000D03*
X125984000Y-92964000D03*
X123444000Y-85344000D03*
X128524000Y-92964000D03*
X120904000Y-85344000D03*
X131064000Y-92964000D03*
X118364000Y-85344000D03*
X133604000Y-92964000D03*
X115824000Y-85344000D03*
X136144000Y-92964000D03*
X113284000Y-85344000D03*
X138684000Y-92964000D03*
X110744000Y-85344000D03*
X141224000Y-92964000D03*
X108204000Y-85344000D03*
%TD*%
%TO.C,U9*%
X109982000Y-99949000D03*
X143002000Y-115189000D03*
X112522000Y-99949000D03*
X140462000Y-115189000D03*
X115062000Y-99949000D03*
X137922000Y-115189000D03*
X117602000Y-99949000D03*
X135382000Y-115189000D03*
X120142000Y-99949000D03*
X132842000Y-115189000D03*
X122682000Y-99949000D03*
X130302000Y-115189000D03*
X125222000Y-99949000D03*
X127762000Y-115189000D03*
X127762000Y-99949000D03*
X125222000Y-115189000D03*
X130302000Y-99949000D03*
X122682000Y-115189000D03*
X132842000Y-99949000D03*
X120142000Y-115189000D03*
X135382000Y-99949000D03*
X117602000Y-115189000D03*
X137922000Y-99949000D03*
X115062000Y-115189000D03*
X140462000Y-99949000D03*
X112522000Y-115189000D03*
X143002000Y-99949000D03*
D12*
X109982000Y-115189000D03*
%TD*%
D13*
%TO.C,U4*%
X78867000Y-60706000D03*
X94107000Y-68326000D03*
X81407000Y-60706000D03*
X91567000Y-68326000D03*
X83947000Y-60706000D03*
X89027000Y-68326000D03*
X86487000Y-60706000D03*
X86487000Y-68326000D03*
X89027000Y-60706000D03*
X83947000Y-68326000D03*
X91567000Y-60706000D03*
X81407000Y-68326000D03*
X94107000Y-60706000D03*
D12*
X78867000Y-68326000D03*
%TD*%
D13*
%TO.C,U2*%
X78994000Y-45720000D03*
X106934000Y-53340000D03*
X81534000Y-45720000D03*
X104394000Y-53340000D03*
X84074000Y-45720000D03*
X101854000Y-53340000D03*
X86614000Y-45720000D03*
X99314000Y-53340000D03*
X89154000Y-45720000D03*
X96774000Y-53340000D03*
X91694000Y-45720000D03*
X94234000Y-53340000D03*
X94234000Y-45720000D03*
X91694000Y-53340000D03*
X96774000Y-45720000D03*
X89154000Y-53340000D03*
X99314000Y-45720000D03*
X86614000Y-53340000D03*
X101854000Y-45720000D03*
X84074000Y-53340000D03*
X104394000Y-45720000D03*
X81534000Y-53340000D03*
X106934000Y-45720000D03*
D12*
X78994000Y-53340000D03*
%TD*%
D16*
%TO.C,U1*%
X69088000Y-38608000D03*
D17*
X74168000Y-38608000D03*
X71628000Y-38608000D03*
%TD*%
D12*
%TO.C,U6*%
X54991000Y-92964000D03*
D13*
X103251000Y-77724000D03*
X57531000Y-92964000D03*
X100711000Y-77724000D03*
X60071000Y-92964000D03*
X98171000Y-77724000D03*
X62611000Y-92964000D03*
X95631000Y-77724000D03*
X65151000Y-92964000D03*
X93091000Y-77724000D03*
X67691000Y-92964000D03*
X90551000Y-77724000D03*
X70231000Y-92964000D03*
X88011000Y-77724000D03*
X72771000Y-92964000D03*
X85471000Y-77724000D03*
X75311000Y-92964000D03*
X82931000Y-77724000D03*
X77851000Y-92964000D03*
X80391000Y-77724000D03*
X80391000Y-92964000D03*
X77851000Y-77724000D03*
X82931000Y-92964000D03*
X75311000Y-77724000D03*
X85471000Y-92964000D03*
X72771000Y-77724000D03*
X88011000Y-92964000D03*
X70231000Y-77724000D03*
X90551000Y-92964000D03*
X67691000Y-77724000D03*
X93091000Y-92964000D03*
X65151000Y-77724000D03*
X95631000Y-92964000D03*
X62611000Y-77724000D03*
X98171000Y-92964000D03*
X60071000Y-77724000D03*
X100711000Y-92964000D03*
X57531000Y-77724000D03*
X103251000Y-92964000D03*
X54991000Y-77724000D03*
%TD*%
D18*
%TO.C,SW1*%
X63246000Y-51585000D03*
X58746000Y-51585000D03*
X63246000Y-45085000D03*
X58746000Y-45085000D03*
%TD*%
D13*
%TO.C,RN1*%
X95123000Y-73152000D03*
X92583000Y-73152000D03*
X90043000Y-73152000D03*
X87503000Y-73152000D03*
X84963000Y-73152000D03*
X82423000Y-73152000D03*
X79883000Y-73152000D03*
D12*
X77343000Y-73152000D03*
%TD*%
D19*
%TO.C,J5*%
X147447000Y-96901000D03*
X147447000Y-94361000D03*
X147447000Y-91821000D03*
X147447000Y-89281000D03*
X147447000Y-86741000D03*
X147447000Y-84201000D03*
X147447000Y-81661000D03*
D20*
X147447000Y-79121000D03*
%TD*%
D19*
%TO.C,J4*%
X147447000Y-73914000D03*
X147447000Y-71374000D03*
X147447000Y-68834000D03*
X147447000Y-66294000D03*
X147447000Y-63754000D03*
X147447000Y-61214000D03*
X147447000Y-58674000D03*
D20*
X147447000Y-56134000D03*
%TD*%
D19*
%TO.C,J7*%
X122174000Y-121666000D03*
X119634000Y-121666000D03*
X117094000Y-121666000D03*
X114554000Y-121666000D03*
X112014000Y-121666000D03*
X109474000Y-121666000D03*
X106934000Y-121666000D03*
X104394000Y-121666000D03*
X101854000Y-121666000D03*
X99314000Y-121666000D03*
X96774000Y-121666000D03*
D20*
X94234000Y-121666000D03*
%TD*%
D19*
%TO.C,J6*%
X88392000Y-121666000D03*
X85852000Y-121666000D03*
X83312000Y-121666000D03*
X80772000Y-121666000D03*
X78232000Y-121666000D03*
X75692000Y-121666000D03*
X73152000Y-121666000D03*
X70612000Y-121666000D03*
X68072000Y-121666000D03*
X65532000Y-121666000D03*
X62992000Y-121666000D03*
D20*
X60452000Y-121666000D03*
%TD*%
D21*
%TO.C,J1*%
X56260000Y-36370000D03*
D22*
X60960000Y-33370000D03*
D23*
X60960000Y-39370000D03*
%TD*%
D24*
%TO.C,H4*%
X148082000Y-122682000D03*
%TD*%
%TO.C,H3*%
X53340000Y-122682000D03*
%TD*%
%TO.C,H2*%
X148082000Y-27940000D03*
%TD*%
%TO.C,H1*%
X53340000Y-27940000D03*
%TD*%
D25*
%TO.C,D1*%
X71628000Y-45212000D03*
D26*
X71628000Y-47752000D03*
%TD*%
D11*
%TO.C,C12*%
X132247000Y-42545000D03*
X134747000Y-42545000D03*
%TD*%
%TO.C,C13*%
X140549000Y-42545000D03*
X138049000Y-42545000D03*
%TD*%
%TO.C,C15*%
X140295000Y-56769000D03*
X137795000Y-56769000D03*
%TD*%
%TO.C,C14*%
X143891000Y-50713000D03*
X143891000Y-53213000D03*
%TD*%
%TO.C,C4*%
X130723000Y-56769000D03*
X133223000Y-56769000D03*
%TD*%
%TO.C,C8*%
X108204000Y-82169000D03*
X110704000Y-82169000D03*
%TD*%
%TO.C,C10*%
X106807000Y-102576000D03*
X106807000Y-100076000D03*
%TD*%
%TO.C,C7*%
X116586000Y-67477000D03*
X116586000Y-69977000D03*
%TD*%
%TO.C,C6*%
X105370000Y-72517000D03*
X102870000Y-72517000D03*
%TD*%
%TO.C,C3*%
X81367000Y-57531000D03*
X78867000Y-57531000D03*
%TD*%
%TO.C,C2*%
X81494000Y-42545000D03*
X78994000Y-42545000D03*
%TD*%
%TO.C,C5*%
X61809000Y-69723000D03*
X59309000Y-69723000D03*
%TD*%
%TO.C,C11*%
X106426000Y-112689000D03*
X106426000Y-115189000D03*
%TD*%
%TO.C,C9*%
X72771000Y-96266000D03*
X70271000Y-96266000D03*
%TD*%
%TO.C,C1*%
X71628000Y-31710000D03*
D12*
X71628000Y-29210000D03*
%TD*%
M02*
