M48
; DRILL file {KiCad (5.1.6)-1} date 10/12/20 18:59:49
; FORMAT={-:-/ absolute / inch / decimal}
; #@! TF.CreationDate,2020-10-12T18:59:49-06:00
; #@! TF.GenerationSoftware,Kicad,Pcbnew,(5.1.6)-1
; #@! TF.FileFunction,Plated,1,4,PTH
FMAT,2
INCH
T1C0.0315
T2C0.0354
T3C0.0394
T4C0.0433
T5C0.1260
%
G90
G05
T1
X4.8316Y-2.245
X4.93Y-2.245
X2.335Y-2.745
X2.4334Y-2.745
X2.165Y-3.935
X2.165Y-4.535
X2.265Y-3.935
X2.265Y-4.535
X2.365Y-3.935
X2.365Y-4.535
X2.465Y-3.935
X2.465Y-4.535
X2.565Y-3.935
X2.565Y-4.535
X2.665Y-3.935
X2.665Y-4.535
X2.765Y-3.935
X2.765Y-4.535
X2.865Y-3.935
X2.865Y-4.535
X2.965Y-3.935
X2.965Y-4.535
X3.065Y-3.935
X3.065Y-4.535
X3.165Y-3.935
X3.165Y-4.535
X3.265Y-3.935
X3.265Y-4.535
X3.365Y-3.935
X3.365Y-4.535
X3.465Y-3.935
X3.465Y-4.535
X3.565Y-3.935
X3.565Y-4.535
X3.665Y-3.935
X3.665Y-4.535
X3.765Y-3.935
X3.765Y-4.535
X3.865Y-3.935
X3.865Y-4.535
X3.965Y-3.935
X3.965Y-4.535
X4.065Y-3.935
X4.065Y-4.535
X2.165Y-3.06
X2.165Y-3.66
X2.265Y-3.06
X2.265Y-3.66
X2.365Y-3.06
X2.365Y-3.66
X2.465Y-3.06
X2.465Y-3.66
X2.565Y-3.06
X2.565Y-3.66
X2.665Y-3.06
X2.665Y-3.66
X2.765Y-3.06
X2.765Y-3.66
X2.865Y-3.06
X2.865Y-3.66
X2.965Y-3.06
X2.965Y-3.66
X3.065Y-3.06
X3.065Y-3.66
X3.165Y-3.06
X3.165Y-3.66
X3.265Y-3.06
X3.265Y-3.66
X3.365Y-3.06
X3.365Y-3.66
X3.465Y-3.06
X3.465Y-3.66
X3.565Y-3.06
X3.565Y-3.66
X3.665Y-3.06
X3.665Y-3.66
X3.765Y-3.06
X3.765Y-3.66
X3.865Y-3.06
X3.865Y-3.66
X3.965Y-3.06
X3.965Y-3.66
X4.065Y-3.06
X4.065Y-3.66
X2.82Y-1.15
X2.82Y-1.2484
X3.11Y-1.675
X3.2084Y-1.675
X4.79Y-2.545
X4.79Y-2.645
X4.79Y-2.745
X4.79Y-2.845
X4.79Y-2.945
X4.79Y-3.045
X4.89Y-2.445
X4.89Y-2.545
X4.89Y-2.645
X4.89Y-2.745
X4.89Y-2.845
X4.89Y-2.945
X4.89Y-3.045
X4.89Y-3.145
X4.99Y-2.445
X4.99Y-2.545
X4.99Y-3.045
X4.99Y-3.145
X5.09Y-2.445
X5.09Y-2.545
X5.09Y-3.045
X5.09Y-3.145
X5.19Y-2.445
X5.19Y-2.545
X5.19Y-3.045
X5.19Y-3.145
X5.29Y-2.445
X5.29Y-2.545
X5.29Y-3.045
X5.29Y-3.145
X5.39Y-2.445
X5.39Y-2.545
X5.39Y-2.645
X5.39Y-2.745
X5.39Y-2.845
X5.39Y-2.945
X5.39Y-3.045
X5.39Y-3.145
X5.49Y-2.545
X5.49Y-2.645
X5.49Y-2.745
X5.49Y-2.845
X5.49Y-2.945
X5.49Y-3.045
X4.055Y-2.38
X4.055Y-2.68
X4.355Y-2.38
X4.355Y-2.68
X3.105Y-2.39
X3.105Y-2.69
X3.205Y-2.39
X3.205Y-2.69
X3.305Y-2.39
X3.305Y-2.69
X3.405Y-2.39
X3.405Y-2.69
X3.505Y-2.39
X3.505Y-2.69
X3.605Y-2.39
X3.605Y-2.69
X3.705Y-2.39
X3.705Y-2.69
X2.72Y-1.52
X2.82Y-1.52
X2.92Y-1.52
X4.05Y-2.855
X4.1484Y-2.855
X3.105Y-2.265
X3.2034Y-2.265
X4.435Y-1.805
X4.435Y-2.105
X4.535Y-1.805
X4.535Y-2.105
X4.635Y-1.805
X4.635Y-2.105
X4.735Y-1.805
X4.735Y-2.105
X4.835Y-1.805
X4.835Y-2.105
X4.935Y-1.805
X4.935Y-2.105
X5.035Y-1.805
X5.035Y-2.105
X5.135Y-1.805
X5.135Y-2.105
X5.235Y-1.805
X5.235Y-2.105
X5.335Y-1.805
X5.335Y-2.105
X5.435Y-1.805
X5.435Y-2.105
X5.535Y-1.805
X5.535Y-2.105
X4.33Y-3.935
X4.33Y-4.535
X4.43Y-3.935
X4.43Y-4.535
X4.53Y-3.935
X4.53Y-4.535
X4.63Y-3.935
X4.63Y-4.535
X4.73Y-3.935
X4.73Y-4.535
X4.83Y-3.935
X4.83Y-4.535
X4.93Y-3.935
X4.93Y-4.535
X5.03Y-3.935
X5.03Y-4.535
X5.13Y-3.935
X5.13Y-4.535
X5.23Y-3.935
X5.23Y-4.535
X5.33Y-3.935
X5.33Y-4.535
X5.43Y-3.935
X5.43Y-4.535
X5.53Y-3.935
X5.53Y-4.535
X5.63Y-3.935
X5.63Y-4.535
X5.1466Y-2.235
X5.245Y-2.235
X2.7666Y-3.79
X2.865Y-3.79
X4.59Y-2.6566
X4.59Y-2.755
X5.425Y-2.235
X5.5234Y-2.235
X4.26Y-3.235
X4.3584Y-3.235
X4.205Y-3.94
X4.205Y-4.0384
X2.325Y-2.27
X2.325Y-2.57
X2.625Y-2.27
X2.625Y-2.57
X4.19Y-4.4366
X4.19Y-4.535
X5.665Y-1.9966
X5.665Y-2.095
X4.26Y-3.36
X4.26Y-3.66
X4.36Y-3.36
X4.36Y-3.66
X4.46Y-3.36
X4.46Y-3.66
X4.56Y-3.36
X4.56Y-3.66
X4.66Y-3.36
X4.66Y-3.66
X4.76Y-3.36
X4.76Y-3.66
X4.86Y-3.36
X4.86Y-3.66
X4.96Y-3.36
X4.96Y-3.66
X5.06Y-3.36
X5.06Y-3.66
X5.16Y-3.36
X5.16Y-3.66
X5.26Y-3.36
X5.26Y-3.66
X5.36Y-3.36
X5.36Y-3.66
X5.46Y-3.36
X5.46Y-3.66
X5.56Y-3.36
X5.56Y-3.66
X3.045Y-2.88
X3.145Y-2.88
X3.245Y-2.88
X3.345Y-2.88
X3.445Y-2.88
X3.545Y-2.88
X3.645Y-2.88
X3.745Y-2.88
X3.11Y-1.8
X3.11Y-2.1
X3.21Y-1.8
X3.21Y-2.1
X3.31Y-1.8
X3.31Y-2.1
X3.41Y-1.8
X3.41Y-2.1
X3.51Y-1.8
X3.51Y-2.1
X3.61Y-1.8
X3.61Y-2.1
X3.71Y-1.8
X3.71Y-2.1
X3.81Y-1.8
X3.81Y-2.1
X3.91Y-1.8
X3.91Y-2.1
X4.01Y-1.8
X4.01Y-2.1
X4.11Y-1.8
X4.11Y-2.1
X4.21Y-1.8
X4.21Y-2.1
X5.435Y-1.675
X5.5334Y-1.675
X5.2066Y-1.675
X5.305Y-1.675
T2
X2.82Y-1.78
X2.82Y-1.88
T3
X4.8288Y-1.505
X4.8833Y-1.3932
X4.9378Y-1.505
X4.9924Y-1.3932
X5.0469Y-1.505
X5.1014Y-1.3932
X5.1559Y-1.505
X5.2105Y-1.3932
X5.265Y-1.505
X5.805Y-2.21
X5.805Y-2.31
X5.805Y-2.41
X5.805Y-2.51
X5.805Y-2.61
X5.805Y-2.71
X5.805Y-2.81
X5.805Y-2.91
X3.71Y-4.79
X3.81Y-4.79
X3.91Y-4.79
X4.01Y-4.79
X4.11Y-4.79
X4.21Y-4.79
X4.31Y-4.79
X4.41Y-4.79
X4.51Y-4.79
X4.61Y-4.79
X4.71Y-4.79
X4.81Y-4.79
X5.805Y-3.115
X5.805Y-3.215
X5.805Y-3.315
X5.805Y-3.415
X5.805Y-3.515
X5.805Y-3.615
X5.805Y-3.715
X5.805Y-3.815
X3.4538Y-1.505
X3.5083Y-1.3932
X3.5628Y-1.505
X3.6174Y-1.3932
X3.6719Y-1.505
X3.7264Y-1.3932
X3.7809Y-1.505
X3.8355Y-1.3932
X3.89Y-1.505
X2.38Y-4.79
X2.48Y-4.79
X2.58Y-4.79
X2.68Y-4.79
X2.78Y-4.79
X2.88Y-4.79
X2.98Y-4.79
X3.08Y-4.79
X3.18Y-4.79
X3.28Y-4.79
X3.38Y-4.79
X3.48Y-4.79
T4
X2.3128Y-1.775
X2.3128Y-2.0309
X2.49Y-1.775
X2.49Y-2.0309
T5
X4.5548Y-1.4491
X5.539Y-1.4491
X3.1798Y-1.4491
X4.164Y-1.4491
T3
G00X2.215Y-1.4713
M15
G01X2.215Y-1.3925
M16
G05
G00X2.3606Y-1.3138
M15
G01X2.4394Y-1.3138
M16
G05
G00X2.3508Y-1.55
M15
G01X2.4492Y-1.55
M16
G05
T0
M30
