%TF.GenerationSoftware,KiCad,Pcbnew,(5.1.6)-1*%
%TF.CreationDate,2020-10-12T18:58:51-06:00*%
%TF.ProjectId,SO6502,534f3635-3032-42e6-9b69-6361645f7063,1*%
%TF.SameCoordinates,Original*%
%TF.FileFunction,Copper,L1,Top*%
%TF.FilePolarity,Positive*%
%FSLAX46Y46*%
G04 Gerber Fmt 4.6, Leading zero omitted, Abs format (unit mm)*
G04 Created by KiCad (PCBNEW (5.1.6)-1) date 2020-10-12 18:58:51*
%MOMM*%
%LPD*%
G01*
G04 APERTURE LIST*
%TA.AperFunction,ComponentPad*%
%ADD10C,4.000000*%
%TD*%
%TA.AperFunction,ComponentPad*%
%ADD11C,1.600000*%
%TD*%
%TA.AperFunction,ComponentPad*%
%ADD12R,1.600000X1.600000*%
%TD*%
%TA.AperFunction,ComponentPad*%
%ADD13O,1.600000X1.600000*%
%TD*%
%TA.AperFunction,ComponentPad*%
%ADD14C,1.422400*%
%TD*%
%TA.AperFunction,ComponentPad*%
%ADD15R,1.422400X1.422400*%
%TD*%
%TA.AperFunction,ComponentPad*%
%ADD16R,1.500000X1.500000*%
%TD*%
%TA.AperFunction,ComponentPad*%
%ADD17C,1.500000*%
%TD*%
%TA.AperFunction,ComponentPad*%
%ADD18C,2.000000*%
%TD*%
%TA.AperFunction,ComponentPad*%
%ADD19O,1.700000X1.700000*%
%TD*%
%TA.AperFunction,ComponentPad*%
%ADD20R,1.700000X1.700000*%
%TD*%
%TA.AperFunction,ComponentPad*%
%ADD21O,2.250000X4.500000*%
%TD*%
%TA.AperFunction,ComponentPad*%
%ADD22O,4.500000X2.250000*%
%TD*%
%TA.AperFunction,ComponentPad*%
%ADD23O,5.000000X2.500000*%
%TD*%
%TA.AperFunction,ComponentPad*%
%ADD24C,1.800000*%
%TD*%
%TA.AperFunction,ComponentPad*%
%ADD25R,1.800000X1.800000*%
%TD*%
%TA.AperFunction,Conductor*%
%ADD26C,0.127000*%
%TD*%
G04 APERTURE END LIST*
D10*
%TO.P,J3,0*%
%TO.N,N/C*%
X115691000Y-36807000D03*
X140691000Y-36807000D03*
D11*
%TO.P,J3,9*%
%TO.N,Net-(J3-Pad9)*%
X124036000Y-35387000D03*
%TO.P,J3,8*%
%TO.N,CTSb*%
X126806000Y-35387000D03*
%TO.P,J3,7*%
%TO.N,RTSb*%
X129576000Y-35387000D03*
%TO.P,J3,6*%
%TO.N,Net-(J3-Pad6)*%
X132346000Y-35387000D03*
%TO.P,J3,5*%
%TO.N,GND*%
X122651000Y-38227000D03*
%TO.P,J3,4*%
%TO.N,Net-(J3-Pad4)*%
X125421000Y-38227000D03*
%TO.P,J3,3*%
%TO.N,TxDb*%
X128191000Y-38227000D03*
%TO.P,J3,2*%
%TO.N,RxDb*%
X130961000Y-38227000D03*
D12*
%TO.P,J3,1*%
%TO.N,Net-(J3-Pad1)*%
X133731000Y-38227000D03*
%TD*%
D10*
%TO.P,J2,0*%
%TO.N,N/C*%
X80766000Y-36807000D03*
X105766000Y-36807000D03*
D11*
%TO.P,J2,9*%
%TO.N,Net-(J2-Pad9)*%
X89111000Y-35387000D03*
%TO.P,J2,8*%
%TO.N,CTSa*%
X91881000Y-35387000D03*
%TO.P,J2,7*%
%TO.N,RTSa*%
X94651000Y-35387000D03*
%TO.P,J2,6*%
%TO.N,Net-(J2-Pad6)*%
X97421000Y-35387000D03*
%TO.P,J2,5*%
%TO.N,GND*%
X87726000Y-38227000D03*
%TO.P,J2,4*%
%TO.N,Net-(J2-Pad4)*%
X90496000Y-38227000D03*
%TO.P,J2,3*%
%TO.N,TxDa*%
X93266000Y-38227000D03*
%TO.P,J2,2*%
%TO.N,RxDa*%
X96036000Y-38227000D03*
D12*
%TO.P,J2,1*%
%TO.N,Net-(J2-Pad1)*%
X98806000Y-38227000D03*
%TD*%
D11*
%TO.P,C16,2*%
%TO.N,GND*%
X122722000Y-57023000D03*
%TO.P,C16,1*%
%TO.N,RESET*%
X125222000Y-57023000D03*
%TD*%
%TO.P,X2,4*%
%TO.N,GND*%
X110617000Y-60452000D03*
%TO.P,X2,5*%
%TO.N,X1*%
X102997000Y-60452000D03*
%TO.P,X2,8*%
%TO.N,Vcc*%
X102997000Y-68072000D03*
D12*
%TO.P,X2,1*%
%TO.N,Net-(X2-Pad1)*%
X110617000Y-68072000D03*
%TD*%
D11*
%TO.P,X1,4*%
%TO.N,GND*%
X66675000Y-57658000D03*
%TO.P,X1,5*%
%TO.N,PHI2*%
X59055000Y-57658000D03*
%TO.P,X1,8*%
%TO.N,Vcc*%
X59055000Y-65278000D03*
D12*
%TO.P,X1,1*%
%TO.N,Net-(X1-Pad1)*%
X66675000Y-65278000D03*
%TD*%
D13*
%TO.P,U3,24*%
%TO.N,RTSa*%
X112649000Y-45847000D03*
%TO.P,U3,12*%
%TO.N,Net-(C15-Pad2)*%
X140589000Y-53467000D03*
%TO.P,U3,23*%
%TO.N,CTSa*%
X115189000Y-45847000D03*
%TO.P,U3,11*%
%TO.N,Net-(C14-Pad2)*%
X138049000Y-53467000D03*
%TO.P,U3,22*%
%TO.N,DCTSa*%
X117729000Y-45847000D03*
%TO.P,U3,10*%
%TO.N,Net-(C15-Pad1)*%
X135509000Y-53467000D03*
%TO.P,U3,21*%
%TO.N,DRTSb*%
X120269000Y-45847000D03*
%TO.P,U3,9*%
%TO.N,Vcc*%
X132969000Y-53467000D03*
%TO.P,U3,20*%
%TO.N,RTSb*%
X122809000Y-45847000D03*
%TO.P,U3,8*%
%TO.N,GND*%
X130429000Y-53467000D03*
%TO.P,U3,19*%
%TO.N,DRTSa*%
X125349000Y-45847000D03*
%TO.P,U3,7*%
%TO.N,RxDa*%
X127889000Y-53467000D03*
%TO.P,U3,18*%
%TO.N,DTxDb*%
X127889000Y-45847000D03*
%TO.P,U3,6*%
%TO.N,DRxDa*%
X125349000Y-53467000D03*
%TO.P,U3,17*%
%TO.N,DCTSb*%
X130429000Y-45847000D03*
%TO.P,U3,5*%
%TO.N,DTxDa*%
X122809000Y-53467000D03*
%TO.P,U3,16*%
%TO.N,CTSb*%
X132969000Y-45847000D03*
%TO.P,U3,4*%
%TO.N,DRxDb*%
X120269000Y-53467000D03*
%TO.P,U3,15*%
%TO.N,Net-(C12-Pad1)*%
X135509000Y-45847000D03*
%TO.P,U3,3*%
%TO.N,RxDb*%
X117729000Y-53467000D03*
%TO.P,U3,14*%
%TO.N,Net-(C13-Pad1)*%
X138049000Y-45847000D03*
%TO.P,U3,2*%
%TO.N,TxDa*%
X115189000Y-53467000D03*
%TO.P,U3,13*%
%TO.N,Net-(C13-Pad2)*%
X140589000Y-45847000D03*
D12*
%TO.P,U3,1*%
%TO.N,TxDb*%
X112649000Y-53467000D03*
%TD*%
D14*
%TO.P,U5,39*%
%TO.N,CS2892*%
X124206000Y-62103000D03*
%TO.P,U5,37*%
%TO.N,Net-(U5-Pad37)*%
X126746000Y-62103000D03*
%TO.P,U5,35*%
%TO.N,DRxDa*%
X129286000Y-62103000D03*
%TO.P,U5,33*%
%TO.N,DTxDa*%
X131826000Y-62103000D03*
%TO.P,U5,31*%
%TO.N,OP2*%
X134366000Y-62103000D03*
%TO.P,U5,40*%
%TO.N,IP2*%
X121666000Y-64643000D03*
%TO.P,U5,38*%
%TO.N,RESET*%
X126746000Y-64643000D03*
%TO.P,U5,36*%
%TO.N,X1*%
X129286000Y-64643000D03*
%TO.P,U5,34*%
%TO.N,Net-(U5-Pad34)*%
X131826000Y-64643000D03*
%TO.P,U5,32*%
%TO.N,DRTSa*%
X134366000Y-64643000D03*
%TO.P,U5,30*%
%TO.N,OP4*%
X136906000Y-64643000D03*
%TO.P,U5,28*%
%TO.N,D0*%
X139446000Y-64643000D03*
%TO.P,U5,26*%
%TO.N,D4*%
X139446000Y-67183000D03*
%TO.P,U5,24*%
%TO.N,IRQ2B*%
X139446000Y-69723000D03*
%TO.P,U5,22*%
%TO.N,GND*%
X139446000Y-72263000D03*
%TO.P,U5,20*%
%TO.N,D5*%
X139446000Y-74803000D03*
%TO.P,U5,18*%
%TO.N,D1*%
X139446000Y-77343000D03*
%TO.P,U5,29*%
%TO.N,OP6*%
X136906000Y-62103000D03*
%TO.P,U5,27*%
%TO.N,D2*%
X136906000Y-67183000D03*
%TO.P,U5,25*%
%TO.N,D6*%
X136906000Y-69723000D03*
%TO.P,U5,23*%
%TO.N,Net-(U5-Pad23)*%
X136906000Y-72263000D03*
%TO.P,U5,21*%
%TO.N,D7*%
X136906000Y-74803000D03*
%TO.P,U5,19*%
%TO.N,D3*%
X136906000Y-77343000D03*
%TO.P,U5,17*%
%TO.N,OP7*%
X136906000Y-79883000D03*
%TO.P,U5,15*%
%TO.N,OP3*%
X134366000Y-79883000D03*
%TO.P,U5,13*%
%TO.N,DTxDb*%
X131826000Y-79883000D03*
%TO.P,U5,11*%
%TO.N,DRxDb*%
X129286000Y-79883000D03*
%TO.P,U5,9*%
%TO.N,WR*%
X126746000Y-79883000D03*
%TO.P,U5,7*%
%TO.N,A3*%
X124206000Y-79883000D03*
%TO.P,U5,16*%
%TO.N,OP5*%
X134366000Y-77343000D03*
%TO.P,U5,14*%
%TO.N,DRTSb*%
X131826000Y-77343000D03*
%TO.P,U5,12*%
%TO.N,Vcc*%
X129286000Y-77343000D03*
%TO.P,U5,10*%
%TO.N,RD*%
X126746000Y-77343000D03*
%TO.P,U5,8*%
%TO.N,DCTSa*%
X124206000Y-77343000D03*
%TO.P,U5,42*%
%TO.N,IP5*%
X121666000Y-67183000D03*
%TO.P,U5,44*%
%TO.N,Vcc*%
X121666000Y-69723000D03*
%TO.P,U5,6*%
%TO.N,A2*%
X121666000Y-77343000D03*
%TO.P,U5,4*%
%TO.N,A1*%
X121666000Y-74803000D03*
%TO.P,U5,2*%
%TO.N,A0*%
X121666000Y-72263000D03*
%TO.P,U5,41*%
%TO.N,IP6*%
X124206000Y-64643000D03*
%TO.P,U5,43*%
%TO.N,IP4*%
X124206000Y-67183000D03*
%TO.P,U5,5*%
%TO.N,DCTSb*%
X124206000Y-74803000D03*
%TO.P,U5,3*%
%TO.N,IP3*%
X124206000Y-72263000D03*
D15*
%TO.P,U5,1*%
%TO.N,Net-(U5-Pad1)*%
X124206000Y-69723000D03*
%TD*%
D13*
%TO.P,U8,40*%
%TO.N,CA1*%
X54991000Y-99949000D03*
%TO.P,U8,20*%
%TO.N,Vcc*%
X103251000Y-115189000D03*
%TO.P,U8,39*%
%TO.N,CA2*%
X57531000Y-99949000D03*
%TO.P,U8,19*%
%TO.N,CB2*%
X100711000Y-115189000D03*
%TO.P,U8,38*%
%TO.N,A0*%
X60071000Y-99949000D03*
%TO.P,U8,18*%
%TO.N,CB1*%
X98171000Y-115189000D03*
%TO.P,U8,37*%
%TO.N,A1*%
X62611000Y-99949000D03*
%TO.P,U8,17*%
%TO.N,PB7*%
X95631000Y-115189000D03*
%TO.P,U8,36*%
%TO.N,A2*%
X65151000Y-99949000D03*
%TO.P,U8,16*%
%TO.N,PB6*%
X93091000Y-115189000D03*
%TO.P,U8,35*%
%TO.N,A3*%
X67691000Y-99949000D03*
%TO.P,U8,15*%
%TO.N,PB5*%
X90551000Y-115189000D03*
%TO.P,U8,34*%
%TO.N,RESB*%
X70231000Y-99949000D03*
%TO.P,U8,14*%
%TO.N,PB4*%
X88011000Y-115189000D03*
%TO.P,U8,33*%
%TO.N,D0*%
X72771000Y-99949000D03*
%TO.P,U8,13*%
%TO.N,PB3*%
X85471000Y-115189000D03*
%TO.P,U8,32*%
%TO.N,D1*%
X75311000Y-99949000D03*
%TO.P,U8,12*%
%TO.N,PB2*%
X82931000Y-115189000D03*
%TO.P,U8,31*%
%TO.N,D2*%
X77851000Y-99949000D03*
%TO.P,U8,11*%
%TO.N,PB1*%
X80391000Y-115189000D03*
%TO.P,U8,30*%
%TO.N,D3*%
X80391000Y-99949000D03*
%TO.P,U8,10*%
%TO.N,PB0*%
X77851000Y-115189000D03*
%TO.P,U8,29*%
%TO.N,D4*%
X82931000Y-99949000D03*
%TO.P,U8,9*%
%TO.N,PA7*%
X75311000Y-115189000D03*
%TO.P,U8,28*%
%TO.N,D5*%
X85471000Y-99949000D03*
%TO.P,U8,8*%
%TO.N,PA6*%
X72771000Y-115189000D03*
%TO.P,U8,27*%
%TO.N,D6*%
X88011000Y-99949000D03*
%TO.P,U8,7*%
%TO.N,PA5*%
X70231000Y-115189000D03*
%TO.P,U8,26*%
%TO.N,D7*%
X90551000Y-99949000D03*
%TO.P,U8,6*%
%TO.N,PA4*%
X67691000Y-115189000D03*
%TO.P,U8,25*%
%TO.N,PHI2*%
X93091000Y-99949000D03*
%TO.P,U8,5*%
%TO.N,PA3*%
X65151000Y-115189000D03*
%TO.P,U8,24*%
%TO.N,Vcc*%
X95631000Y-99949000D03*
%TO.P,U8,4*%
%TO.N,PA2*%
X62611000Y-115189000D03*
%TO.P,U8,23*%
%TO.N,CS6522*%
X98171000Y-99949000D03*
%TO.P,U8,3*%
%TO.N,PA1*%
X60071000Y-115189000D03*
%TO.P,U8,22*%
%TO.N,RWB*%
X100711000Y-99949000D03*
%TO.P,U8,2*%
%TO.N,PA0*%
X57531000Y-115189000D03*
%TO.P,U8,21*%
%TO.N,IRQ1B*%
X103251000Y-99949000D03*
D12*
%TO.P,U8,1*%
%TO.N,GND*%
X54991000Y-115189000D03*
%TD*%
%TO.P,U7,1*%
%TO.N,A14*%
X108204000Y-92964000D03*
D13*
%TO.P,U7,15*%
%TO.N,D3*%
X141224000Y-85344000D03*
%TO.P,U7,2*%
%TO.N,A12*%
X110744000Y-92964000D03*
%TO.P,U7,16*%
%TO.N,D4*%
X138684000Y-85344000D03*
%TO.P,U7,3*%
%TO.N,A7*%
X113284000Y-92964000D03*
%TO.P,U7,17*%
%TO.N,D5*%
X136144000Y-85344000D03*
%TO.P,U7,4*%
%TO.N,A6*%
X115824000Y-92964000D03*
%TO.P,U7,18*%
%TO.N,D6*%
X133604000Y-85344000D03*
%TO.P,U7,5*%
%TO.N,A5*%
X118364000Y-92964000D03*
%TO.P,U7,19*%
%TO.N,D7*%
X131064000Y-85344000D03*
%TO.P,U7,6*%
%TO.N,A4*%
X120904000Y-92964000D03*
%TO.P,U7,20*%
%TO.N,CSRAM*%
X128524000Y-85344000D03*
%TO.P,U7,7*%
%TO.N,A3*%
X123444000Y-92964000D03*
%TO.P,U7,21*%
%TO.N,A10*%
X125984000Y-85344000D03*
%TO.P,U7,8*%
%TO.N,A2*%
X125984000Y-92964000D03*
%TO.P,U7,22*%
%TO.N,RD*%
X123444000Y-85344000D03*
%TO.P,U7,9*%
%TO.N,A1*%
X128524000Y-92964000D03*
%TO.P,U7,23*%
%TO.N,A11*%
X120904000Y-85344000D03*
%TO.P,U7,10*%
%TO.N,A0*%
X131064000Y-92964000D03*
%TO.P,U7,24*%
%TO.N,A9*%
X118364000Y-85344000D03*
%TO.P,U7,11*%
%TO.N,D0*%
X133604000Y-92964000D03*
%TO.P,U7,25*%
%TO.N,A8*%
X115824000Y-85344000D03*
%TO.P,U7,12*%
%TO.N,D1*%
X136144000Y-92964000D03*
%TO.P,U7,26*%
%TO.N,A13*%
X113284000Y-85344000D03*
%TO.P,U7,13*%
%TO.N,D2*%
X138684000Y-92964000D03*
%TO.P,U7,27*%
%TO.N,WR*%
X110744000Y-85344000D03*
%TO.P,U7,14*%
%TO.N,GND*%
X141224000Y-92964000D03*
%TO.P,U7,28*%
%TO.N,Vcc*%
X108204000Y-85344000D03*
%TD*%
%TO.P,U9,28*%
%TO.N,Vcc*%
X109982000Y-99949000D03*
%TO.P,U9,14*%
%TO.N,GND*%
X143002000Y-115189000D03*
%TO.P,U9,27*%
%TO.N,Vcc*%
X112522000Y-99949000D03*
%TO.P,U9,13*%
%TO.N,D2*%
X140462000Y-115189000D03*
%TO.P,U9,26*%
%TO.N,A13*%
X115062000Y-99949000D03*
%TO.P,U9,12*%
%TO.N,D1*%
X137922000Y-115189000D03*
%TO.P,U9,25*%
%TO.N,A8*%
X117602000Y-99949000D03*
%TO.P,U9,11*%
%TO.N,D0*%
X135382000Y-115189000D03*
%TO.P,U9,24*%
%TO.N,A9*%
X120142000Y-99949000D03*
%TO.P,U9,10*%
%TO.N,A0*%
X132842000Y-115189000D03*
%TO.P,U9,23*%
%TO.N,A11*%
X122682000Y-99949000D03*
%TO.P,U9,9*%
%TO.N,A1*%
X130302000Y-115189000D03*
%TO.P,U9,22*%
%TO.N,RD*%
X125222000Y-99949000D03*
%TO.P,U9,8*%
%TO.N,A2*%
X127762000Y-115189000D03*
%TO.P,U9,21*%
%TO.N,A10*%
X127762000Y-99949000D03*
%TO.P,U9,7*%
%TO.N,A3*%
X125222000Y-115189000D03*
%TO.P,U9,20*%
%TO.N,CSROM*%
X130302000Y-99949000D03*
%TO.P,U9,6*%
%TO.N,A4*%
X122682000Y-115189000D03*
%TO.P,U9,19*%
%TO.N,D7*%
X132842000Y-99949000D03*
%TO.P,U9,5*%
%TO.N,A5*%
X120142000Y-115189000D03*
%TO.P,U9,18*%
%TO.N,D6*%
X135382000Y-99949000D03*
%TO.P,U9,4*%
%TO.N,A6*%
X117602000Y-115189000D03*
%TO.P,U9,17*%
%TO.N,D5*%
X137922000Y-99949000D03*
%TO.P,U9,3*%
%TO.N,A7*%
X115062000Y-115189000D03*
%TO.P,U9,16*%
%TO.N,D4*%
X140462000Y-99949000D03*
%TO.P,U9,2*%
%TO.N,A12*%
X112522000Y-115189000D03*
%TO.P,U9,15*%
%TO.N,D3*%
X143002000Y-99949000D03*
D12*
%TO.P,U9,1*%
%TO.N,A14*%
X109982000Y-115189000D03*
%TD*%
D13*
%TO.P,U4,14*%
%TO.N,Vcc*%
X78867000Y-60706000D03*
%TO.P,U4,7*%
%TO.N,GND*%
X94107000Y-68326000D03*
%TO.P,U4,13*%
%TO.N,Net-(U4-Pad12)*%
X81407000Y-60706000D03*
%TO.P,U4,6*%
%TO.N,RESB*%
X91567000Y-68326000D03*
%TO.P,U4,12*%
%TO.N,Net-(U4-Pad12)*%
X83947000Y-60706000D03*
%TO.P,U4,5*%
%TO.N,RESET*%
X89027000Y-68326000D03*
%TO.P,U4,11*%
%TO.N,IRQB*%
X86487000Y-60706000D03*
%TO.P,U4,4*%
%TO.N,RESET*%
X86487000Y-68326000D03*
%TO.P,U4,10*%
%TO.N,IRQ2B*%
X89027000Y-60706000D03*
%TO.P,U4,3*%
%TO.N,RESET*%
X83947000Y-68326000D03*
%TO.P,U4,9*%
%TO.N,IRQ1B*%
X91567000Y-60706000D03*
%TO.P,U4,2*%
%TO.N,Net-(SW1-Pad1)*%
X81407000Y-68326000D03*
%TO.P,U4,8*%
%TO.N,Net-(U4-Pad12)*%
X94107000Y-60706000D03*
D12*
%TO.P,U4,1*%
%TO.N,Net-(SW1-Pad1)*%
X78867000Y-68326000D03*
%TD*%
D13*
%TO.P,U2,24*%
%TO.N,Vcc*%
X78994000Y-45720000D03*
%TO.P,U2,12*%
%TO.N,GND*%
X106934000Y-53340000D03*
%TO.P,U2,23*%
%TO.N,RDY*%
X81534000Y-45720000D03*
%TO.P,U2,11*%
%TO.N,A7*%
X104394000Y-53340000D03*
%TO.P,U2,22*%
%TO.N,WR*%
X84074000Y-45720000D03*
%TO.P,U2,10*%
%TO.N,A8*%
X101854000Y-53340000D03*
%TO.P,U2,21*%
%TO.N,RD*%
X86614000Y-45720000D03*
%TO.P,U2,9*%
%TO.N,A9*%
X99314000Y-53340000D03*
%TO.P,U2,20*%
%TO.N,Net-(U2-Pad20)*%
X89154000Y-45720000D03*
%TO.P,U2,8*%
%TO.N,A10*%
X96774000Y-53340000D03*
%TO.P,U2,19*%
%TO.N,CS6522*%
X91694000Y-45720000D03*
%TO.P,U2,7*%
%TO.N,A11*%
X94234000Y-53340000D03*
%TO.P,U2,18*%
%TO.N,CSROM*%
X94234000Y-45720000D03*
%TO.P,U2,6*%
%TO.N,A12*%
X91694000Y-53340000D03*
%TO.P,U2,17*%
%TO.N,CSRAM*%
X96774000Y-45720000D03*
%TO.P,U2,5*%
%TO.N,A13*%
X89154000Y-53340000D03*
%TO.P,U2,16*%
%TO.N,CS2892*%
X99314000Y-45720000D03*
%TO.P,U2,4*%
%TO.N,A14*%
X86614000Y-53340000D03*
%TO.P,U2,15*%
%TO.N,A4*%
X101854000Y-45720000D03*
%TO.P,U2,3*%
%TO.N,A15*%
X84074000Y-53340000D03*
%TO.P,U2,14*%
%TO.N,A5*%
X104394000Y-45720000D03*
%TO.P,U2,2*%
%TO.N,RWB*%
X81534000Y-53340000D03*
%TO.P,U2,13*%
%TO.N,A6*%
X106934000Y-45720000D03*
D12*
%TO.P,U2,1*%
%TO.N,PHI2*%
X78994000Y-53340000D03*
%TD*%
D16*
%TO.P,U1,1*%
%TO.N,Net-(SW1-Pad1)*%
X69088000Y-38608000D03*
D17*
%TO.P,U1,3*%
%TO.N,GND*%
X74168000Y-38608000D03*
%TO.P,U1,2*%
%TO.N,Vcc*%
X71628000Y-38608000D03*
%TD*%
D12*
%TO.P,U6,1*%
%TO.N,Net-(U6-Pad1)*%
X54991000Y-92964000D03*
D13*
%TO.P,U6,21*%
%TO.N,GND*%
X103251000Y-77724000D03*
%TO.P,U6,2*%
%TO.N,RDY*%
X57531000Y-92964000D03*
%TO.P,U6,22*%
%TO.N,A12*%
X100711000Y-77724000D03*
%TO.P,U6,3*%
%TO.N,Net-(U6-Pad3)*%
X60071000Y-92964000D03*
%TO.P,U6,23*%
%TO.N,A13*%
X98171000Y-77724000D03*
%TO.P,U6,4*%
%TO.N,IRQB*%
X62611000Y-92964000D03*
%TO.P,U6,24*%
%TO.N,A14*%
X95631000Y-77724000D03*
%TO.P,U6,5*%
%TO.N,Net-(U6-Pad5)*%
X65151000Y-92964000D03*
%TO.P,U6,25*%
%TO.N,A15*%
X93091000Y-77724000D03*
%TO.P,U6,6*%
%TO.N,NMIB*%
X67691000Y-92964000D03*
%TO.P,U6,26*%
%TO.N,D7*%
X90551000Y-77724000D03*
%TO.P,U6,7*%
%TO.N,Net-(U6-Pad7)*%
X70231000Y-92964000D03*
%TO.P,U6,27*%
%TO.N,D6*%
X88011000Y-77724000D03*
%TO.P,U6,8*%
%TO.N,Vcc*%
X72771000Y-92964000D03*
%TO.P,U6,28*%
%TO.N,D5*%
X85471000Y-77724000D03*
%TO.P,U6,9*%
%TO.N,A0*%
X75311000Y-92964000D03*
%TO.P,U6,29*%
%TO.N,D4*%
X82931000Y-77724000D03*
%TO.P,U6,10*%
%TO.N,A1*%
X77851000Y-92964000D03*
%TO.P,U6,30*%
%TO.N,D3*%
X80391000Y-77724000D03*
%TO.P,U6,11*%
%TO.N,A2*%
X80391000Y-92964000D03*
%TO.P,U6,31*%
%TO.N,D2*%
X77851000Y-77724000D03*
%TO.P,U6,12*%
%TO.N,A3*%
X82931000Y-92964000D03*
%TO.P,U6,32*%
%TO.N,D1*%
X75311000Y-77724000D03*
%TO.P,U6,13*%
%TO.N,A4*%
X85471000Y-92964000D03*
%TO.P,U6,33*%
%TO.N,D0*%
X72771000Y-77724000D03*
%TO.P,U6,14*%
%TO.N,A5*%
X88011000Y-92964000D03*
%TO.P,U6,34*%
%TO.N,RWB*%
X70231000Y-77724000D03*
%TO.P,U6,15*%
%TO.N,A6*%
X90551000Y-92964000D03*
%TO.P,U6,35*%
%TO.N,Net-(U6-Pad35)*%
X67691000Y-77724000D03*
%TO.P,U6,16*%
%TO.N,A7*%
X93091000Y-92964000D03*
%TO.P,U6,36*%
%TO.N,BE*%
X65151000Y-77724000D03*
%TO.P,U6,17*%
%TO.N,A8*%
X95631000Y-92964000D03*
%TO.P,U6,37*%
%TO.N,PHI2*%
X62611000Y-77724000D03*
%TO.P,U6,18*%
%TO.N,A9*%
X98171000Y-92964000D03*
%TO.P,U6,38*%
%TO.N,SOB*%
X60071000Y-77724000D03*
%TO.P,U6,19*%
%TO.N,A10*%
X100711000Y-92964000D03*
%TO.P,U6,39*%
%TO.N,Net-(U6-Pad39)*%
X57531000Y-77724000D03*
%TO.P,U6,20*%
%TO.N,A11*%
X103251000Y-92964000D03*
%TO.P,U6,40*%
%TO.N,RESB*%
X54991000Y-77724000D03*
%TD*%
D18*
%TO.P,SW1,1*%
%TO.N,Net-(SW1-Pad1)*%
X63246000Y-51585000D03*
%TO.P,SW1,2*%
%TO.N,GND*%
X58746000Y-51585000D03*
%TO.P,SW1,1*%
%TO.N,Net-(SW1-Pad1)*%
X63246000Y-45085000D03*
%TO.P,SW1,2*%
%TO.N,GND*%
X58746000Y-45085000D03*
%TD*%
D13*
%TO.P,RN1,8*%
%TO.N,Net-(RN1-Pad8)*%
X95123000Y-73152000D03*
%TO.P,RN1,7*%
%TO.N,IRQ2B*%
X92583000Y-73152000D03*
%TO.P,RN1,6*%
%TO.N,NMIB*%
X90043000Y-73152000D03*
%TO.P,RN1,5*%
%TO.N,RDY*%
X87503000Y-73152000D03*
%TO.P,RN1,4*%
%TO.N,BE*%
X84963000Y-73152000D03*
%TO.P,RN1,3*%
%TO.N,SOB*%
X82423000Y-73152000D03*
%TO.P,RN1,2*%
%TO.N,Net-(D1-Pad2)*%
X79883000Y-73152000D03*
D12*
%TO.P,RN1,1*%
%TO.N,Vcc*%
X77343000Y-73152000D03*
%TD*%
D19*
%TO.P,J5,8*%
%TO.N,GND*%
X147447000Y-96901000D03*
%TO.P,J5,7*%
%TO.N,Vcc*%
X147447000Y-94361000D03*
%TO.P,J5,6*%
%TO.N,OP7*%
X147447000Y-91821000D03*
%TO.P,J5,5*%
%TO.N,OP6*%
X147447000Y-89281000D03*
%TO.P,J5,4*%
%TO.N,OP5*%
X147447000Y-86741000D03*
%TO.P,J5,3*%
%TO.N,OP4*%
X147447000Y-84201000D03*
%TO.P,J5,2*%
%TO.N,OP3*%
X147447000Y-81661000D03*
D20*
%TO.P,J5,1*%
%TO.N,OP2*%
X147447000Y-79121000D03*
%TD*%
D19*
%TO.P,J4,8*%
%TO.N,GND*%
X147447000Y-73914000D03*
%TO.P,J4,7*%
%TO.N,Vcc*%
X147447000Y-71374000D03*
%TO.P,J4,6*%
%TO.N,Net-(J4-Pad6)*%
X147447000Y-68834000D03*
%TO.P,J4,5*%
%TO.N,IP6*%
X147447000Y-66294000D03*
%TO.P,J4,4*%
%TO.N,IP5*%
X147447000Y-63754000D03*
%TO.P,J4,3*%
%TO.N,IP4*%
X147447000Y-61214000D03*
%TO.P,J4,2*%
%TO.N,IP3*%
X147447000Y-58674000D03*
D20*
%TO.P,J4,1*%
%TO.N,IP2*%
X147447000Y-56134000D03*
%TD*%
D19*
%TO.P,J7,12*%
%TO.N,GND*%
X122174000Y-121666000D03*
%TO.P,J7,11*%
%TO.N,Vcc*%
X119634000Y-121666000D03*
%TO.P,J7,10*%
%TO.N,CB2*%
X117094000Y-121666000D03*
%TO.P,J7,9*%
%TO.N,CB1*%
X114554000Y-121666000D03*
%TO.P,J7,8*%
%TO.N,PB7*%
X112014000Y-121666000D03*
%TO.P,J7,7*%
%TO.N,PB6*%
X109474000Y-121666000D03*
%TO.P,J7,6*%
%TO.N,PB5*%
X106934000Y-121666000D03*
%TO.P,J7,5*%
%TO.N,PB4*%
X104394000Y-121666000D03*
%TO.P,J7,4*%
%TO.N,PB3*%
X101854000Y-121666000D03*
%TO.P,J7,3*%
%TO.N,PB2*%
X99314000Y-121666000D03*
%TO.P,J7,2*%
%TO.N,PB1*%
X96774000Y-121666000D03*
D20*
%TO.P,J7,1*%
%TO.N,PB0*%
X94234000Y-121666000D03*
%TD*%
D19*
%TO.P,J6,12*%
%TO.N,GND*%
X88392000Y-121666000D03*
%TO.P,J6,11*%
%TO.N,Vcc*%
X85852000Y-121666000D03*
%TO.P,J6,10*%
%TO.N,CA2*%
X83312000Y-121666000D03*
%TO.P,J6,9*%
%TO.N,CA1*%
X80772000Y-121666000D03*
%TO.P,J6,8*%
%TO.N,PA7*%
X78232000Y-121666000D03*
%TO.P,J6,7*%
%TO.N,PA6*%
X75692000Y-121666000D03*
%TO.P,J6,6*%
%TO.N,PA5*%
X73152000Y-121666000D03*
%TO.P,J6,5*%
%TO.N,PA4*%
X70612000Y-121666000D03*
%TO.P,J6,4*%
%TO.N,PA3*%
X68072000Y-121666000D03*
%TO.P,J6,3*%
%TO.N,PA2*%
X65532000Y-121666000D03*
%TO.P,J6,2*%
%TO.N,PA1*%
X62992000Y-121666000D03*
D20*
%TO.P,J6,1*%
%TO.N,PA0*%
X60452000Y-121666000D03*
%TD*%
D21*
%TO.P,J1,3*%
%TO.N,GND*%
X56260000Y-36370000D03*
D22*
%TO.P,J1,2*%
X60960000Y-33370000D03*
D23*
%TO.P,J1,1*%
%TO.N,Vcc*%
X60960000Y-39370000D03*
%TD*%
D24*
%TO.P,D1,2*%
%TO.N,Net-(D1-Pad2)*%
X71628000Y-45212000D03*
D25*
%TO.P,D1,1*%
%TO.N,GND*%
X71628000Y-47752000D03*
%TD*%
D11*
%TO.P,C12,2*%
%TO.N,GND*%
X132247000Y-42545000D03*
%TO.P,C12,1*%
%TO.N,Net-(C12-Pad1)*%
X134747000Y-42545000D03*
%TD*%
%TO.P,C13,2*%
%TO.N,Net-(C13-Pad2)*%
X140549000Y-42545000D03*
%TO.P,C13,1*%
%TO.N,Net-(C13-Pad1)*%
X138049000Y-42545000D03*
%TD*%
%TO.P,C15,2*%
%TO.N,Net-(C15-Pad2)*%
X140295000Y-56769000D03*
%TO.P,C15,1*%
%TO.N,Net-(C15-Pad1)*%
X137795000Y-56769000D03*
%TD*%
%TO.P,C14,2*%
%TO.N,Net-(C14-Pad2)*%
X143891000Y-50713000D03*
%TO.P,C14,1*%
%TO.N,Vcc*%
X143891000Y-53213000D03*
%TD*%
%TO.P,C4,2*%
%TO.N,GND*%
X130723000Y-56769000D03*
%TO.P,C4,1*%
%TO.N,Vcc*%
X133223000Y-56769000D03*
%TD*%
%TO.P,C8,1*%
%TO.N,Vcc*%
X108204000Y-82169000D03*
%TO.P,C8,2*%
%TO.N,GND*%
X110704000Y-82169000D03*
%TD*%
%TO.P,C10,2*%
%TO.N,GND*%
X106807000Y-102576000D03*
%TO.P,C10,1*%
%TO.N,Vcc*%
X106807000Y-100076000D03*
%TD*%
%TO.P,C7,2*%
%TO.N,GND*%
X116586000Y-67477000D03*
%TO.P,C7,1*%
%TO.N,Vcc*%
X116586000Y-69977000D03*
%TD*%
%TO.P,C6,2*%
%TO.N,GND*%
X105370000Y-72517000D03*
%TO.P,C6,1*%
%TO.N,Vcc*%
X102870000Y-72517000D03*
%TD*%
%TO.P,C3,2*%
%TO.N,GND*%
X81367000Y-57531000D03*
%TO.P,C3,1*%
%TO.N,Vcc*%
X78867000Y-57531000D03*
%TD*%
%TO.P,C2,2*%
%TO.N,GND*%
X81494000Y-42545000D03*
%TO.P,C2,1*%
%TO.N,Vcc*%
X78994000Y-42545000D03*
%TD*%
%TO.P,C5,2*%
%TO.N,GND*%
X61809000Y-69723000D03*
%TO.P,C5,1*%
%TO.N,Vcc*%
X59309000Y-69723000D03*
%TD*%
%TO.P,C11,2*%
%TO.N,GND*%
X106426000Y-112689000D03*
%TO.P,C11,1*%
%TO.N,Vcc*%
X106426000Y-115189000D03*
%TD*%
%TO.P,C9,1*%
%TO.N,Vcc*%
X72771000Y-96266000D03*
%TO.P,C9,2*%
%TO.N,GND*%
X70271000Y-96266000D03*
%TD*%
%TO.P,C1,2*%
%TO.N,GND*%
X71628000Y-31710000D03*
D12*
%TO.P,C1,1*%
%TO.N,Vcc*%
X71628000Y-29210000D03*
%TD*%
D26*
%TO.N,RESET*%
X90017800Y-68326000D02*
X94907300Y-63436500D01*
X94907300Y-63436500D02*
X125539500Y-63436500D01*
X125539500Y-63436500D02*
X126746000Y-64643000D01*
X86487000Y-68326000D02*
X89027000Y-68326000D01*
X83947000Y-68326000D02*
X86487000Y-68326000D01*
X89027000Y-68326000D02*
X90017800Y-68326000D01*
%TO.N,CA1*%
X54991000Y-99949000D02*
X55981800Y-99949000D01*
X80772000Y-121666000D02*
X79731200Y-121666000D01*
X79731200Y-121666000D02*
X74041000Y-115975800D01*
X74041000Y-115975800D02*
X74041000Y-115008200D01*
X74041000Y-115008200D02*
X65052700Y-106019900D01*
X65052700Y-106019900D02*
X62052700Y-106019900D01*
X62052700Y-106019900D02*
X55981800Y-99949000D01*
%TO.N,PA5*%
X73152000Y-121666000D02*
X73152000Y-120625200D01*
X73152000Y-120625200D02*
X70231000Y-117704200D01*
X70231000Y-117704200D02*
X70231000Y-115189000D01*
%TO.N,PA4*%
X70612000Y-121666000D02*
X70612000Y-120625200D01*
X70612000Y-120625200D02*
X67691000Y-117704200D01*
X67691000Y-117704200D02*
X67691000Y-115189000D01*
%TO.N,PA3*%
X68072000Y-121666000D02*
X68072000Y-120625200D01*
X68072000Y-120625200D02*
X65151000Y-117704200D01*
X65151000Y-117704200D02*
X65151000Y-115189000D01*
%TO.N,PA2*%
X65532000Y-121666000D02*
X65532000Y-120625200D01*
X65532000Y-120625200D02*
X62611000Y-117704200D01*
X62611000Y-117704200D02*
X62611000Y-115189000D01*
%TO.N,PA1*%
X62992000Y-121666000D02*
X62992000Y-120625200D01*
X62992000Y-120625200D02*
X60071000Y-117704200D01*
X60071000Y-117704200D02*
X60071000Y-115189000D01*
%TO.N,CB2*%
X100711000Y-115189000D02*
X101701800Y-115189000D01*
X117094000Y-121666000D02*
X116053200Y-121666000D01*
X116053200Y-121666000D02*
X110618000Y-116230800D01*
X110618000Y-116230800D02*
X102743600Y-116230800D01*
X102743600Y-116230800D02*
X101701800Y-115189000D01*
%TO.N,CB1*%
X99161800Y-115189000D02*
X100457900Y-116485100D01*
X100457900Y-116485100D02*
X108332300Y-116485100D01*
X108332300Y-116485100D02*
X113513200Y-121666000D01*
X98171000Y-115189000D02*
X99161800Y-115189000D01*
X114554000Y-121666000D02*
X113513200Y-121666000D01*
%TO.N,PB7*%
X96621800Y-115189000D02*
X98172200Y-116739400D01*
X98172200Y-116739400D02*
X106046600Y-116739400D01*
X106046600Y-116739400D02*
X110973200Y-121666000D01*
X95631000Y-115189000D02*
X96621800Y-115189000D01*
X112014000Y-121666000D02*
X110973200Y-121666000D01*
%TO.N,PB6*%
X94081800Y-115189000D02*
X95886500Y-116993700D01*
X95886500Y-116993700D02*
X103760900Y-116993700D01*
X103760900Y-116993700D02*
X108433200Y-121666000D01*
X93091000Y-115189000D02*
X94081800Y-115189000D01*
X109474000Y-121666000D02*
X108433200Y-121666000D01*
%TO.N,PB5*%
X106934000Y-121666000D02*
X105893200Y-121666000D01*
X90551000Y-115189000D02*
X91541800Y-115189000D01*
X91541800Y-115189000D02*
X92532600Y-116179800D01*
X92532600Y-116179800D02*
X94461000Y-116179800D01*
X94461000Y-116179800D02*
X97038100Y-118756900D01*
X97038100Y-118756900D02*
X102984100Y-118756900D01*
X102984100Y-118756900D02*
X105893200Y-121666000D01*
%TO.N,PB4*%
X89001800Y-115189000D02*
X89992600Y-116179800D01*
X89992600Y-116179800D02*
X91912100Y-116179800D01*
X91912100Y-116179800D02*
X92166400Y-116434100D01*
X92166400Y-116434100D02*
X94355600Y-116434100D01*
X94355600Y-116434100D02*
X97803600Y-119882100D01*
X97803600Y-119882100D02*
X101569300Y-119882100D01*
X101569300Y-119882100D02*
X103353200Y-121666000D01*
X104394000Y-121666000D02*
X103353200Y-121666000D01*
X88011000Y-115189000D02*
X89001800Y-115189000D01*
%TO.N,PB3*%
X86461800Y-115189000D02*
X87706900Y-116434100D01*
X87706900Y-116434100D02*
X91806800Y-116434100D01*
X91806800Y-116434100D02*
X92061100Y-116688400D01*
X92061100Y-116688400D02*
X93893200Y-116688400D01*
X93893200Y-116688400D02*
X97387000Y-120182200D01*
X97387000Y-120182200D02*
X99329400Y-120182200D01*
X99329400Y-120182200D02*
X100813200Y-121666000D01*
X101854000Y-121666000D02*
X100813200Y-121666000D01*
X85471000Y-115189000D02*
X86461800Y-115189000D01*
%TO.N,PB2*%
X83921800Y-115189000D02*
X85421200Y-116688400D01*
X85421200Y-116688400D02*
X91701500Y-116688400D01*
X91701500Y-116688400D02*
X91955800Y-116942700D01*
X91955800Y-116942700D02*
X93549900Y-116942700D01*
X93549900Y-116942700D02*
X98273200Y-121666000D01*
X99314000Y-121666000D02*
X98273200Y-121666000D01*
X82931000Y-115189000D02*
X83921800Y-115189000D01*
%TO.N,PB1*%
X81381800Y-115189000D02*
X83135500Y-116942700D01*
X83135500Y-116942700D02*
X91530300Y-116942700D01*
X91530300Y-116942700D02*
X95733200Y-121145600D01*
X95733200Y-121145600D02*
X95733200Y-121666000D01*
X80391000Y-115189000D02*
X81381800Y-115189000D01*
X96774000Y-121666000D02*
X95733200Y-121666000D01*
%TO.N,PB0*%
X77851000Y-115189000D02*
X78841800Y-115189000D01*
X94234000Y-121666000D02*
X93193200Y-121666000D01*
X93193200Y-121666000D02*
X92152400Y-120625200D01*
X92152400Y-120625200D02*
X84278000Y-120625200D01*
X84278000Y-120625200D02*
X78841800Y-115189000D01*
%TO.N,RTSa*%
X112649000Y-45847000D02*
X111658200Y-45847000D01*
X111658200Y-45847000D02*
X102258600Y-36447400D01*
X102258600Y-36447400D02*
X95711400Y-36447400D01*
X95711400Y-36447400D02*
X94651000Y-35387000D01*
%TO.N,TxDa*%
X115189000Y-53467000D02*
X114198200Y-53467000D01*
X114198200Y-53467000D02*
X114198200Y-53838500D01*
X114198200Y-53838500D02*
X113578800Y-54457900D01*
X113578800Y-54457900D02*
X111707500Y-54457900D01*
X111707500Y-54457900D02*
X103124000Y-45874400D01*
X103124000Y-45874400D02*
X103124000Y-45561500D01*
X103124000Y-45561500D02*
X98009800Y-40447300D01*
X98009800Y-40447300D02*
X95486300Y-40447300D01*
X95486300Y-40447300D02*
X93266000Y-38227000D01*
%TO.N,RTSb*%
X122809000Y-45847000D02*
X122809000Y-44856200D01*
X122809000Y-44856200D02*
X123056700Y-44856200D01*
X123056700Y-44856200D02*
X129576000Y-38336900D01*
X129576000Y-38336900D02*
X129576000Y-35387000D01*
%TO.N,TxDb*%
X112649000Y-53467000D02*
X113639800Y-53467000D01*
X113639800Y-53467000D02*
X114630600Y-52476200D01*
X114630600Y-52476200D02*
X115065700Y-52476200D01*
X115065700Y-52476200D02*
X121539000Y-46002900D01*
X121539000Y-46002900D02*
X121539000Y-44879000D01*
X121539000Y-44879000D02*
X128191000Y-38227000D01*
%TO.N,RxDb*%
X117729000Y-53467000D02*
X117729000Y-52476200D01*
X130961000Y-38227000D02*
X124079000Y-45109000D01*
X124079000Y-45109000D02*
X124079000Y-46126200D01*
X124079000Y-46126200D02*
X117729000Y-52476200D01*
%TO.N,IRQ2B*%
X139446000Y-69723000D02*
X138176000Y-70993000D01*
X138176000Y-70993000D02*
X95732800Y-70993000D01*
X95732800Y-70993000D02*
X93573800Y-73152000D01*
X92583000Y-73152000D02*
X93573800Y-73152000D01*
%TO.N,RDY*%
X57531000Y-92964000D02*
X58521800Y-92964000D01*
X87503000Y-73152000D02*
X86512200Y-73152000D01*
X86512200Y-73152000D02*
X85012700Y-74651500D01*
X85012700Y-74651500D02*
X79484900Y-74651500D01*
X79484900Y-74651500D02*
X76581000Y-77555400D01*
X76581000Y-77555400D02*
X76581000Y-77917700D01*
X76581000Y-77917700D02*
X67605600Y-86893100D01*
X67605600Y-86893100D02*
X64592700Y-86893100D01*
X64592700Y-86893100D02*
X58521800Y-92964000D01*
%TO.N,SOB*%
X60071000Y-77724000D02*
X61061800Y-77724000D01*
X82423000Y-73152000D02*
X81432200Y-73152000D01*
X81432200Y-73152000D02*
X80441400Y-74142800D01*
X80441400Y-74142800D02*
X64643000Y-74142800D01*
X64643000Y-74142800D02*
X61061800Y-77724000D01*
%TO.N,BE*%
X66141800Y-77724000D02*
X69468700Y-74397100D01*
X69468700Y-74397100D02*
X82727100Y-74397100D01*
X82727100Y-74397100D02*
X83972200Y-73152000D01*
X65151000Y-77724000D02*
X66141800Y-77724000D01*
X84963000Y-73152000D02*
X83972200Y-73152000D01*
%TO.N,NMIB*%
X67691000Y-91973200D02*
X78907400Y-80756800D01*
X78907400Y-80756800D02*
X78907400Y-77800500D01*
X78907400Y-77800500D02*
X80752800Y-75955100D01*
X80752800Y-75955100D02*
X86518800Y-75955100D01*
X86518800Y-75955100D02*
X89052200Y-73421700D01*
X89052200Y-73421700D02*
X89052200Y-73152000D01*
X67691000Y-92964000D02*
X67691000Y-91973200D01*
X90043000Y-73152000D02*
X89052200Y-73152000D01*
%TO.N,Net-(SW1-Pad1)*%
X63246000Y-51585000D02*
X78867000Y-67206000D01*
X78867000Y-67206000D02*
X78867000Y-68326000D01*
X78867000Y-68326000D02*
X80416200Y-68326000D01*
X81407000Y-68326000D02*
X80416200Y-68326000D01*
%TO.N,RESB*%
X54991000Y-77724000D02*
X55981800Y-77724000D01*
X91567000Y-68326000D02*
X90576200Y-68326000D01*
X90576200Y-68326000D02*
X88006900Y-70895300D01*
X88006900Y-70895300D02*
X62810500Y-70895300D01*
X62810500Y-70895300D02*
X55981800Y-77724000D01*
%TO.N,A11*%
X104241800Y-92964000D02*
X106769300Y-95491500D01*
X106769300Y-95491500D02*
X117233700Y-95491500D01*
X117233700Y-95491500D02*
X121691200Y-99949000D01*
X122682000Y-99949000D02*
X121691200Y-99949000D01*
X103251000Y-92964000D02*
X104241800Y-92964000D01*
%TO.N,A10*%
X101701800Y-92964000D02*
X102692600Y-91973200D01*
X102692600Y-91973200D02*
X104331100Y-91973200D01*
X104331100Y-91973200D02*
X107002100Y-94644200D01*
X107002100Y-94644200D02*
X121466400Y-94644200D01*
X121466400Y-94644200D02*
X126771200Y-99949000D01*
X127762000Y-99949000D02*
X126771200Y-99949000D01*
X100711000Y-92964000D02*
X101701800Y-92964000D01*
%TO.N,A9*%
X99161800Y-92964000D02*
X101943600Y-95745800D01*
X101943600Y-95745800D02*
X114948000Y-95745800D01*
X114948000Y-95745800D02*
X119151200Y-99949000D01*
X98171000Y-92964000D02*
X99161800Y-92964000D01*
X120142000Y-99949000D02*
X119151200Y-99949000D01*
%TO.N,A8*%
X117602000Y-99949000D02*
X116611200Y-99949000D01*
X95631000Y-92964000D02*
X96621800Y-92964000D01*
X96621800Y-92964000D02*
X101805100Y-98147300D01*
X101805100Y-98147300D02*
X114809500Y-98147300D01*
X114809500Y-98147300D02*
X116611200Y-99949000D01*
%TO.N,A7*%
X112293200Y-92964000D02*
X110793800Y-91464600D01*
X110793800Y-91464600D02*
X95311500Y-91464600D01*
X95311500Y-91464600D02*
X94081800Y-92694300D01*
X94081800Y-92694300D02*
X94081800Y-92964000D01*
X113284000Y-92964000D02*
X112293200Y-92964000D01*
X93091000Y-92964000D02*
X94081800Y-92964000D01*
%TO.N,A6*%
X114833200Y-92964000D02*
X114833200Y-92694300D01*
X114833200Y-92694300D02*
X113094900Y-90956000D01*
X113094900Y-90956000D02*
X93280100Y-90956000D01*
X93280100Y-90956000D02*
X91541800Y-92694300D01*
X91541800Y-92694300D02*
X91541800Y-92964000D01*
X115824000Y-92964000D02*
X114833200Y-92964000D01*
X90551000Y-92964000D02*
X91541800Y-92964000D01*
%TO.N,A5*%
X117373200Y-92964000D02*
X115110900Y-90701700D01*
X115110900Y-90701700D02*
X91264100Y-90701700D01*
X91264100Y-90701700D02*
X89001800Y-92964000D01*
X118364000Y-92964000D02*
X117373200Y-92964000D01*
X88011000Y-92964000D02*
X89001800Y-92964000D01*
%TO.N,D0*%
X132613200Y-92964000D02*
X131622300Y-93954900D01*
X131622300Y-93954900D02*
X115339800Y-93954900D01*
X115339800Y-93954900D02*
X114374100Y-92989200D01*
X114374100Y-92989200D02*
X114374100Y-92594800D01*
X114374100Y-92594800D02*
X112989600Y-91210300D01*
X112989600Y-91210300D02*
X93398100Y-91210300D01*
X93398100Y-91210300D02*
X91808700Y-92799700D01*
X91808700Y-92799700D02*
X91808700Y-93107600D01*
X91808700Y-93107600D02*
X86212400Y-98703900D01*
X86212400Y-98703900D02*
X75006900Y-98703900D01*
X75006900Y-98703900D02*
X73761800Y-99949000D01*
X133604000Y-92964000D02*
X132613200Y-92964000D01*
X72771000Y-99949000D02*
X73761800Y-99949000D01*
%TO.N,A4*%
X119913200Y-92964000D02*
X117396600Y-90447400D01*
X117396600Y-90447400D02*
X88978400Y-90447400D01*
X88978400Y-90447400D02*
X86461800Y-92964000D01*
X120904000Y-92964000D02*
X119913200Y-92964000D01*
X85471000Y-92964000D02*
X86461800Y-92964000D01*
%TO.N,D1*%
X135153200Y-92964000D02*
X133908000Y-94209200D01*
X133908000Y-94209200D02*
X107234400Y-94209200D01*
X107234400Y-94209200D02*
X104744100Y-91718900D01*
X104744100Y-91718900D02*
X95429500Y-91718900D01*
X95429500Y-91718900D02*
X94348700Y-92799700D01*
X94348700Y-92799700D02*
X94348700Y-93107500D01*
X94348700Y-93107500D02*
X89006600Y-98449600D01*
X89006600Y-98449600D02*
X87195500Y-98449600D01*
X87195500Y-98449600D02*
X86686900Y-98958200D01*
X86686900Y-98958200D02*
X77292600Y-98958200D01*
X77292600Y-98958200D02*
X76301800Y-99949000D01*
X136144000Y-92964000D02*
X135153200Y-92964000D01*
X75311000Y-99949000D02*
X76301800Y-99949000D01*
%TO.N,A3*%
X119682300Y-90193100D02*
X86692700Y-90193100D01*
X86692700Y-90193100D02*
X83921800Y-92964000D01*
X122453200Y-92964000D02*
X119682300Y-90193100D01*
X119682300Y-90193100D02*
X119682300Y-84406700D01*
X119682300Y-84406700D02*
X124206000Y-79883000D01*
X67691000Y-99949000D02*
X68681800Y-99949000D01*
X82931000Y-92964000D02*
X81940200Y-92964000D01*
X81940200Y-92964000D02*
X76816800Y-98087400D01*
X76816800Y-98087400D02*
X70543400Y-98087400D01*
X70543400Y-98087400D02*
X68681800Y-99949000D01*
X83426400Y-92964000D02*
X82931000Y-92964000D01*
X83426400Y-92964000D02*
X83921800Y-92964000D01*
X123444000Y-92964000D02*
X122453200Y-92964000D01*
%TO.N,D2*%
X77851000Y-77724000D02*
X80128600Y-75446400D01*
X80128600Y-75446400D02*
X86609900Y-75446400D01*
X86609900Y-75446400D02*
X88773000Y-73283300D01*
X88773000Y-73283300D02*
X88773000Y-73002700D01*
X88773000Y-73002700D02*
X91062400Y-70713300D01*
X91062400Y-70713300D02*
X114396400Y-70713300D01*
X114396400Y-70713300D02*
X116288800Y-68820900D01*
X116288800Y-68820900D02*
X135268100Y-68820900D01*
X135268100Y-68820900D02*
X136906000Y-67183000D01*
%TO.N,A2*%
X80391000Y-92964000D02*
X81381800Y-92964000D01*
X81381800Y-92964000D02*
X82372600Y-91973200D01*
X82372600Y-91973200D02*
X83210900Y-91973200D01*
X83210900Y-91973200D02*
X96990800Y-78193300D01*
X96990800Y-78193300D02*
X96990800Y-77493500D01*
X96990800Y-77493500D02*
X97751200Y-76733100D01*
X97751200Y-76733100D02*
X121056100Y-76733100D01*
X121056100Y-76733100D02*
X121666000Y-77343000D01*
X79895600Y-92964000D02*
X80391000Y-92964000D01*
X66141800Y-99949000D02*
X66141800Y-98958200D01*
X66141800Y-98958200D02*
X70636600Y-94463400D01*
X70636600Y-94463400D02*
X77900800Y-94463400D01*
X77900800Y-94463400D02*
X79400200Y-92964000D01*
X79895600Y-92964000D02*
X79400200Y-92964000D01*
X65151000Y-99949000D02*
X66141800Y-99949000D01*
%TO.N,D3*%
X133419800Y-76440800D02*
X130512000Y-73533000D01*
X130512000Y-73533000D02*
X124190100Y-73533000D01*
X124190100Y-73533000D02*
X123304000Y-72646900D01*
X123304000Y-72646900D02*
X123304000Y-72554900D01*
X123304000Y-72554900D02*
X122088500Y-71339400D01*
X122088500Y-71339400D02*
X99073000Y-71339400D01*
X99073000Y-71339400D02*
X94818000Y-75594400D01*
X94818000Y-75594400D02*
X91212900Y-75594400D01*
X91212900Y-75594400D02*
X89281000Y-77526300D01*
X89281000Y-77526300D02*
X89281000Y-77886900D01*
X89281000Y-77886900D02*
X88453000Y-78714900D01*
X88453000Y-78714900D02*
X82372700Y-78714900D01*
X82372700Y-78714900D02*
X81381800Y-77724000D01*
X140233200Y-85344000D02*
X139242400Y-84353200D01*
X139242400Y-84353200D02*
X137548600Y-84353200D01*
X137548600Y-84353200D02*
X133419800Y-80224400D01*
X133419800Y-80224400D02*
X133419800Y-76440800D01*
X133419800Y-76440800D02*
X136003800Y-76440800D01*
X136003800Y-76440800D02*
X136906000Y-77343000D01*
X141224000Y-85344000D02*
X140233200Y-85344000D01*
X80391000Y-77724000D02*
X81381800Y-77724000D01*
%TO.N,A1*%
X128524000Y-92964000D02*
X128524000Y-91973200D01*
X121666000Y-74803000D02*
X122722000Y-75859000D01*
X122722000Y-75859000D02*
X126601400Y-75859000D01*
X126601400Y-75859000D02*
X127947500Y-77205100D01*
X127947500Y-77205100D02*
X127947500Y-82297400D01*
X127947500Y-82297400D02*
X127514100Y-82730800D01*
X127514100Y-82730800D02*
X127514100Y-90963300D01*
X127514100Y-90963300D02*
X128524000Y-91973200D01*
X78841800Y-92964000D02*
X92497100Y-79308700D01*
X92497100Y-79308700D02*
X95459200Y-79308700D01*
X95459200Y-79308700D02*
X96646800Y-78121100D01*
X96646800Y-78121100D02*
X96646800Y-77477900D01*
X96646800Y-77477900D02*
X99321700Y-74803000D01*
X99321700Y-74803000D02*
X121666000Y-74803000D01*
X77851000Y-92964000D02*
X78841800Y-92964000D01*
X77355600Y-92964000D02*
X77851000Y-92964000D01*
X63601800Y-99949000D02*
X69341700Y-94209100D01*
X69341700Y-94209100D02*
X75615100Y-94209100D01*
X75615100Y-94209100D02*
X76860200Y-92964000D01*
X77355600Y-92964000D02*
X76860200Y-92964000D01*
X62611000Y-99949000D02*
X63601800Y-99949000D01*
%TO.N,D4*%
X83921800Y-99949000D02*
X85504100Y-101531300D01*
X85504100Y-101531300D02*
X109055300Y-101531300D01*
X109055300Y-101531300D02*
X109231600Y-101707600D01*
X109231600Y-101707600D02*
X137712600Y-101707600D01*
X137712600Y-101707600D02*
X139471200Y-99949000D01*
X140462000Y-99949000D02*
X139471200Y-99949000D01*
X82931000Y-99949000D02*
X83921800Y-99949000D01*
%TO.N,A0*%
X75311000Y-92964000D02*
X76301800Y-92964000D01*
X76301800Y-92964000D02*
X90291200Y-78974600D01*
X90291200Y-78974600D02*
X93254800Y-78974600D01*
X93254800Y-78974600D02*
X94361000Y-77868400D01*
X94361000Y-77868400D02*
X94361000Y-77584600D01*
X94361000Y-77584600D02*
X98044700Y-73900900D01*
X98044700Y-73900900D02*
X120028100Y-73900900D01*
X120028100Y-73900900D02*
X121666000Y-72263000D01*
X74815600Y-92964000D02*
X75311000Y-92964000D01*
X74815600Y-92964000D02*
X74320200Y-92964000D01*
X60071000Y-99949000D02*
X61061800Y-99949000D01*
X74320200Y-92964000D02*
X73329400Y-93954800D01*
X73329400Y-93954800D02*
X67056000Y-93954800D01*
X67056000Y-93954800D02*
X61061800Y-99949000D01*
%TO.N,D5*%
X135939500Y-98957300D02*
X136931200Y-99949000D01*
X86461800Y-99949000D02*
X87706900Y-98703900D01*
X87706900Y-98703900D02*
X89112000Y-98703900D01*
X89112000Y-98703900D02*
X89172400Y-98643500D01*
X89172400Y-98643500D02*
X107260800Y-98643500D01*
X107260800Y-98643500D02*
X109557100Y-100939800D01*
X109557100Y-100939800D02*
X128172500Y-100939800D01*
X128172500Y-100939800D02*
X129032000Y-100080300D01*
X129032000Y-100080300D02*
X129032000Y-99799600D01*
X129032000Y-99799600D02*
X129874300Y-98957300D01*
X129874300Y-98957300D02*
X135939500Y-98957300D01*
X135939500Y-98957300D02*
X137156000Y-97740800D01*
X137156000Y-97740800D02*
X137156000Y-87346800D01*
X137156000Y-87346800D02*
X136144000Y-86334800D01*
X136144000Y-85344000D02*
X136144000Y-86334800D01*
X137922000Y-99949000D02*
X136931200Y-99949000D01*
X85471000Y-99949000D02*
X86461800Y-99949000D01*
%TO.N,D6*%
X89001800Y-99949000D02*
X90311200Y-101258400D01*
X90311200Y-101258400D02*
X109142000Y-101258400D01*
X109142000Y-101258400D02*
X109332300Y-101448700D01*
X109332300Y-101448700D02*
X132891500Y-101448700D01*
X132891500Y-101448700D02*
X134391200Y-99949000D01*
X135382000Y-99949000D02*
X134391200Y-99949000D01*
X88011000Y-99949000D02*
X89001800Y-99949000D01*
%TO.N,D7*%
X91541800Y-99949000D02*
X92533500Y-98957300D01*
X92533500Y-98957300D02*
X107200500Y-98957300D01*
X107200500Y-98957300D02*
X109437400Y-101194200D01*
X109437400Y-101194200D02*
X130606000Y-101194200D01*
X130606000Y-101194200D02*
X131851200Y-99949000D01*
X90551000Y-99949000D02*
X91541800Y-99949000D01*
X132842000Y-99949000D02*
X131851200Y-99949000D01*
%TO.N,IRQB*%
X86487000Y-60706000D02*
X86487000Y-61696800D01*
X62611000Y-92964000D02*
X61620200Y-92964000D01*
X61620200Y-92964000D02*
X60625600Y-93958600D01*
X60625600Y-93958600D02*
X57079400Y-93958600D01*
X57079400Y-93958600D02*
X56540100Y-93419300D01*
X56540100Y-93419300D02*
X56540100Y-81178600D01*
X56540100Y-81178600D02*
X53988900Y-78627400D01*
X53988900Y-78627400D02*
X53988900Y-77323800D01*
X53988900Y-77323800D02*
X54597200Y-76715500D01*
X54597200Y-76715500D02*
X56519600Y-76715500D01*
X56519600Y-76715500D02*
X63788300Y-69446800D01*
X63788300Y-69446800D02*
X81738000Y-69446800D01*
X81738000Y-69446800D02*
X82677000Y-68507800D01*
X82677000Y-68507800D02*
X82677000Y-65506800D01*
X82677000Y-65506800D02*
X86487000Y-61696800D01*
%TO.N,A13*%
X113284000Y-85344000D02*
X112293200Y-85344000D01*
X98171000Y-77724000D02*
X99161800Y-77724000D01*
X99161800Y-77724000D02*
X104716500Y-83278700D01*
X104716500Y-83278700D02*
X110227900Y-83278700D01*
X110227900Y-83278700D02*
X112293200Y-85344000D01*
%TO.N,WR*%
X110744000Y-85344000D02*
X111734800Y-85344000D01*
X111734800Y-85344000D02*
X112726300Y-86335500D01*
X112726300Y-86335500D02*
X113699100Y-86335500D01*
X113699100Y-86335500D02*
X114808400Y-85226200D01*
X114808400Y-85226200D02*
X114808400Y-84929100D01*
X114808400Y-84929100D02*
X120807000Y-78930500D01*
X120807000Y-78930500D02*
X125793500Y-78930500D01*
X125793500Y-78930500D02*
X126746000Y-79883000D01*
%TO.N,RD*%
X123444000Y-84353200D02*
X123564800Y-84353200D01*
X123564800Y-84353200D02*
X127651100Y-80266900D01*
X127651100Y-80266900D02*
X127651100Y-78248100D01*
X127651100Y-78248100D02*
X126746000Y-77343000D01*
X123444000Y-85344000D02*
X123444000Y-84353200D01*
%TO.N,CS2892*%
X99314000Y-45720000D02*
X100304800Y-45720000D01*
X124206000Y-62103000D02*
X117719300Y-62103000D01*
X117719300Y-62103000D02*
X103687200Y-48070900D01*
X103687200Y-48070900D02*
X102655700Y-48070900D01*
X102655700Y-48070900D02*
X100304800Y-45720000D01*
%TO.N,Net-(U4-Pad12)*%
X83947000Y-60706000D02*
X84937800Y-60706000D01*
X94107000Y-60706000D02*
X93116200Y-60706000D01*
X93116200Y-60706000D02*
X92122400Y-59712200D01*
X92122400Y-59712200D02*
X85931600Y-59712200D01*
X85931600Y-59712200D02*
X84937800Y-60706000D01*
X83947000Y-60706000D02*
X81407000Y-60706000D01*
%TO.N,DTxDa*%
X122809000Y-53467000D02*
X123799800Y-53467000D01*
X131826000Y-62103000D02*
X123799800Y-54076800D01*
X123799800Y-54076800D02*
X123799800Y-53467000D01*
%TO.N,X1*%
X129286000Y-64643000D02*
X127825100Y-63182100D01*
X127825100Y-63182100D02*
X105727100Y-63182100D01*
X105727100Y-63182100D02*
X102997000Y-60452000D01*
%TO.N,DRTSa*%
X125349000Y-45847000D02*
X125349000Y-46837800D01*
X134366000Y-64643000D02*
X132914300Y-63191300D01*
X132914300Y-63191300D02*
X132914300Y-61294600D01*
X132914300Y-61294600D02*
X129159000Y-57539300D01*
X129159000Y-57539300D02*
X129159000Y-50647800D01*
X129159000Y-50647800D02*
X125349000Y-46837800D01*
%TO.N,IP6*%
X147447000Y-66294000D02*
X146406200Y-66294000D01*
X146406200Y-66294000D02*
X146393200Y-66281000D01*
X146393200Y-66281000D02*
X136497500Y-66281000D01*
X136497500Y-66281000D02*
X134392500Y-68386000D01*
X134392500Y-68386000D02*
X121554300Y-68386000D01*
X121554300Y-68386000D02*
X120735300Y-67567000D01*
X120735300Y-67567000D02*
X120735300Y-66803300D01*
X120735300Y-66803300D02*
X121257700Y-66280900D01*
X121257700Y-66280900D02*
X122568100Y-66280900D01*
X122568100Y-66280900D02*
X124206000Y-64643000D01*
%TO.N,IP5*%
X146406200Y-63754000D02*
X144133600Y-66026600D01*
X144133600Y-66026600D02*
X136265000Y-66026600D01*
X136265000Y-66026600D02*
X134160100Y-68131500D01*
X134160100Y-68131500D02*
X122614500Y-68131500D01*
X122614500Y-68131500D02*
X121666000Y-67183000D01*
X147447000Y-63754000D02*
X146406200Y-63754000D01*
%TO.N,IP4*%
X147447000Y-61214000D02*
X146406200Y-61214000D01*
X146406200Y-61214000D02*
X141853800Y-65766400D01*
X141853800Y-65766400D02*
X135668300Y-65766400D01*
X135668300Y-65766400D02*
X134251700Y-67183000D01*
X134251700Y-67183000D02*
X124206000Y-67183000D01*
%TO.N,IP3*%
X147447000Y-58674000D02*
X147447000Y-59714800D01*
X147447000Y-59714800D02*
X148490500Y-60758300D01*
X148490500Y-60758300D02*
X148490500Y-66725300D01*
X148490500Y-66725300D02*
X147651800Y-67564000D01*
X147651800Y-67564000D02*
X147184800Y-67564000D01*
X147184800Y-67564000D02*
X143501400Y-71247400D01*
X143501400Y-71247400D02*
X125221600Y-71247400D01*
X125221600Y-71247400D02*
X124206000Y-72263000D01*
%TO.N,IP2*%
X147447000Y-56134000D02*
X146406200Y-56134000D01*
X146406200Y-56134000D02*
X138799400Y-63740800D01*
X138799400Y-63740800D02*
X136511400Y-63740800D01*
X136511400Y-63740800D02*
X135636100Y-64616100D01*
X135636100Y-64616100D02*
X135636100Y-64687100D01*
X135636100Y-64687100D02*
X134728200Y-65595000D01*
X134728200Y-65595000D02*
X126349900Y-65595000D01*
X126349900Y-65595000D02*
X125159200Y-64404300D01*
X125159200Y-64404300D02*
X125159200Y-64271500D01*
X125159200Y-64271500D02*
X124578500Y-63690800D01*
X124578500Y-63690800D02*
X122618200Y-63690800D01*
X122618200Y-63690800D02*
X121666000Y-64643000D01*
%TO.N,OP7*%
X147447000Y-91821000D02*
X147447000Y-90780200D01*
X147447000Y-90780200D02*
X146406200Y-89739400D01*
X146406200Y-89739400D02*
X146406200Y-89107600D01*
X146406200Y-89107600D02*
X137181600Y-79883000D01*
X137181600Y-79883000D02*
X136906000Y-79883000D01*
%TO.N,OP5*%
X147447000Y-86741000D02*
X147447000Y-85700200D01*
X147447000Y-85700200D02*
X148487900Y-84659300D01*
X148487900Y-84659300D02*
X148487900Y-81164300D01*
X148487900Y-81164300D02*
X147624600Y-80301000D01*
X147624600Y-80301000D02*
X146406100Y-80301000D01*
X146406100Y-80301000D02*
X144396600Y-78291500D01*
X144396600Y-78291500D02*
X135314500Y-78291500D01*
X135314500Y-78291500D02*
X134366000Y-77343000D01*
%TO.N,OP3*%
X134366000Y-79883000D02*
X135287900Y-78961100D01*
X135287900Y-78961100D02*
X143706300Y-78961100D01*
X143706300Y-78961100D02*
X146406200Y-81661000D01*
X147447000Y-81661000D02*
X146406200Y-81661000D01*
%TO.N,Net-(C14-Pad2)*%
X138049000Y-53467000D02*
X139039800Y-53467000D01*
X143891000Y-50713000D02*
X141793800Y-50713000D01*
X141793800Y-50713000D02*
X139039800Y-53467000D01*
%TD*%
M02*
